<svg width="181" height="150" viewBox="0 0 181 150" fill="none" xmlns="http://www.w3.org/2000/svg">
<path d="M178.973 147.092C178.973 148.698 139.039 150 89.7767 150C40.5147 150 0.580078 148.698 0.580078 147.092C0.580078 145.486 40.5147 144.183 89.7767 144.183C139.039 144.183 178.973 145.486 178.973 147.092Z" fill="#C8C8C8"/>
<path d="M145.283 126.205C145.364 137.036 136.378 145.88 125.212 145.959C114.045 146.038 104.927 137.322 104.846 126.491C104.765 115.661 113.751 106.816 124.917 106.737C136.084 106.658 145.201 115.375 145.283 126.205Z" fill="#7C7C7C"/>
<path d="M139.622 126.244C139.68 134.042 133.21 140.41 125.17 140.467C117.13 140.525 110.566 134.249 110.508 126.451C110.45 118.653 116.92 112.285 124.959 112.228C132.999 112.171 139.564 118.446 139.622 126.244Z" fill="#485275"/>
<path d="M136.952 126.263C136.999 132.631 131.716 137.831 125.151 137.877C118.587 137.924 113.226 132.8 113.179 126.432C113.131 120.065 118.415 114.865 124.979 114.818C131.544 114.771 136.904 119.896 136.952 126.263Z" fill="#C6D2D6"/>
<path d="M124.991 114.819C122.748 114.835 120.656 115.454 118.875 116.517C119.699 116.308 120.562 116.193 121.453 116.187C127.247 116.145 131.979 120.677 132.021 126.308C132.063 131.939 127.399 136.537 121.605 136.579C120.714 136.585 119.849 136.482 119.022 136.286C120.819 137.323 122.92 137.912 125.162 137.896C131.721 137.85 136.998 132.646 136.951 126.273C136.903 119.9 131.549 114.772 124.991 114.819Z" fill="#99A2AF"/>
<path d="M130.307 126.31C130.328 129.118 127.997 131.411 125.103 131.432C122.208 131.453 119.844 129.193 119.823 126.385C119.802 123.576 122.132 121.284 125.027 121.263C127.922 121.243 130.286 123.502 130.307 126.31Z" fill="#99A2AF"/>
<path d="M128.617 126.323C128.631 128.225 127.053 129.779 125.091 129.793C123.13 129.807 121.528 128.276 121.514 126.373C121.5 124.471 123.078 122.917 125.04 122.903C127.001 122.89 128.602 124.42 128.617 126.323Z" fill="#FF6C4D"/>
<path d="M41.0813 126.201C41.1613 137.032 32.1741 145.877 21.008 145.957C9.84185 146.037 0.724924 137.322 0.644899 126.491C0.564877 115.661 9.55205 106.815 20.7182 106.735C31.8844 106.655 41.0013 115.37 41.0813 126.201Z" fill="#7C7C7C"/>
<path d="M35.422 126.244C35.4802 134.042 29.0098 140.41 20.9698 140.467C12.9301 140.524 6.36573 134.249 6.30753 126.451C6.24933 118.653 12.7194 112.285 20.759 112.228C28.799 112.171 35.3638 118.446 35.422 126.244Z" fill="#485275"/>
<path d="M32.7529 126.264C32.8006 132.632 27.5177 137.831 20.9527 137.878C14.3881 137.924 9.02751 132.8 8.97985 126.432C8.93219 120.065 14.2155 114.865 20.7801 114.818C27.3451 114.772 32.7053 119.896 32.7529 126.264Z" fill="#C6D2D6"/>
<path d="M20.7913 114.819C18.5493 114.835 16.4567 115.454 14.6755 116.516C15.4994 116.308 16.3631 116.193 17.2535 116.187C23.0482 116.146 27.7801 120.677 27.8223 126.308C27.8644 131.94 23.2008 136.538 17.4061 136.579C16.5158 136.585 15.6504 136.482 14.8234 136.286C16.6204 137.323 18.7217 137.912 20.9641 137.896C27.5218 137.85 32.7994 132.646 32.7517 126.273C32.704 119.901 27.349 114.772 20.7913 114.819Z" fill="#99A2AF"/>
<path d="M26.1075 126.31C26.1284 129.118 23.7985 131.411 20.9035 131.432C18.0089 131.453 15.6447 129.193 15.6238 126.385C15.6029 123.576 17.9331 121.284 20.8278 121.263C23.7228 121.243 26.0865 123.502 26.1075 126.31Z" fill="#99A2AF"/>
<path d="M24.4174 126.323C24.4316 128.225 22.853 129.779 20.8919 129.793C18.9304 129.807 17.3291 128.276 17.3148 126.373C17.3006 124.471 18.8788 122.917 20.8403 122.903C22.8014 122.889 24.4031 124.42 24.4174 126.323Z" fill="#FFD08B"/>
<path d="M47.9836 54.5587H42.3237C41.2703 54.5587 40.416 55.3869 40.416 56.4091V59.8393C40.416 60.8611 41.2703 61.6897 42.3237 61.6897H46.905V60.3252C48.2854 60.3252 49.6098 59.7932 50.5861 58.8458L51.2745 58.1785L47.9836 54.5587Z" fill="#EBA48E"/>
<path d="M47.9834 54.5586L51.2743 58.1784L65.4068 54.9917L63.452 49.9205L47.9834 54.5586Z" fill="#EBA48E"/>
<path d="M63.4525 49.9202L62.7625 50.1273L62.5391 55.6391L65.4078 54.9919L63.4525 49.9202Z" fill="#DD8B76"/>
<path d="M90.5121 30.3053C88.648 28.8868 85.964 29.14 84.4169 30.8807L69.7567 47.3749L67.1074 48.2412L69.5688 54.6278L70.9588 54.3358C73.1587 53.8732 75.1647 52.7805 76.7166 51.1991L90.9871 36.6539C92.79 34.8158 92.5697 31.8715 90.5121 30.3053Z" fill="#FF6C4D"/>
<path d="M69.6476 54.8311L69.5693 54.628L67.1075 48.2418L66.8641 47.6101C66.7245 47.2483 66.3088 47.0645 65.9358 47.1998L63.5128 48.0785C63.1394 48.2142 62.9503 48.6171 63.0899 48.9789L63.2869 49.4912L65.5896 55.464L65.8734 56.2C66.0129 56.5618 66.4283 56.7456 66.8013 56.6102L69.2247 55.7315C69.5977 55.5962 69.7871 55.1933 69.6476 54.8311Z" fill="#FF6C4D"/>
<path d="M85.344 31.5677C86.7076 30.0336 88.9838 29.6207 90.8263 30.5722C90.726 30.48 90.6233 30.39 90.5121 30.3058C88.6484 28.887 85.964 29.1402 84.4173 30.8809L69.7567 47.3751L67.1074 48.2418L67.5024 49.2667L70.4779 48.2937L85.344 31.5677Z" fill="#FF6C4D"/>
<path d="M85.4101 64.6277L54.8544 72.5158C49.5723 73.8792 47.1089 79.7721 49.9205 84.3187L67.7317 113.125L77.6491 108.857L63.3974 82.5695L92.4196 76.6855C98.0348 75.547 101.341 69.884 99.4607 64.6277H85.4101Z" fill="#7C7C7C"/>
<path d="M76.3646 110.823L75.6199 109.73L69.9844 112.156L71.3108 114.498L77.5927 112.788C77.2074 112.12 76.8008 111.463 76.3646 110.823Z" fill="#EBA48E"/>
<path d="M74.8165 115.541L74.2916 116.837L74.9915 116.359C75.2694 116.169 75.6008 116.067 75.9402 116.067H79.2311C78.7517 114.944 78.2061 113.849 77.594 112.788L71.3125 114.498L71.6919 115.167H74.5538C74.7525 115.167 74.8892 115.361 74.8165 115.541Z" fill="white"/>
<path d="M67.5942 121.122H80.9073L80.665 120.21C80.2888 118.795 79.8051 117.413 79.2306 116.067H75.9398C75.6004 116.067 75.269 116.17 74.9911 116.359L74.2911 116.837L74.816 115.541C74.8888 115.362 74.7521 115.168 74.5534 115.168H71.6914L69.5763 117.095C68.6184 117.969 67.3532 118.455 66.0384 118.455H64.5972C63.1856 118.455 61.9543 119.218 61.3203 120.346L64.0655 120.82C65.2304 121.021 66.4113 121.122 67.5942 121.122Z" fill="#7C7C7C"/>
<path d="M67.5947 121.123C66.4118 121.123 65.2305 121.021 64.0655 120.82L61.3207 120.346C61.0517 120.825 60.8874 121.368 60.8662 121.949L65.0606 122.318C65.7238 122.376 66.3894 122.405 67.0554 122.405H81.2487L80.9073 121.123H67.5947Z" fill="white"/>
<path d="M75.6199 109.73L69.9844 112.156L70.5932 113.23L76.7292 111.374L75.6199 109.73Z" fill="#7C7C7C"/>
<path d="M38.2672 61.9747H36.8248L33.1122 74.7137C30.2055 84.6864 31.3844 95.352 36.3791 104.491L38.1884 105.153L38.2672 61.9747Z" fill="#FF6C4D"/>
<path d="M33.1122 74.7137L36.8248 61.9747H35.4724L27.8525 89.4102C27.1661 91.8807 24.8566 93.5973 22.219 93.5973C22.0199 93.5973 21.8584 93.754 21.8584 93.9471V99.1835L36.3791 104.491C31.3844 95.352 30.2055 84.6864 33.1122 74.7137Z" fill="#FFD08B"/>
<path d="M21.8447 100.674C32.293 100.994 41.2289 108.087 44.0089 117.862L44.4607 119.45L44.9512 119.683L44.0089 116.371C41.2289 106.596 32.293 99.503 21.8447 99.1835C21.5748 99.1753 21.3046 99.1714 21.0332 99.1714C16.5358 99.1714 12.2207 100.31 8.42773 102.434L9.11853 103.553C12.7408 101.668 16.806 100.663 21.0332 100.663C21.3046 100.663 21.5748 100.666 21.8447 100.674Z" fill="white"/>
<path d="M23.752 109.578L44.4607 119.45L44.009 117.862C41.229 108.087 32.2926 100.994 21.8443 100.675C21.5745 100.667 21.3042 100.663 21.0328 100.663C16.8061 100.663 12.7404 101.668 9.11816 103.553L12.8376 109.578H23.752Z" fill="#EEDEC2"/>
<path d="M45.9313 121.175H36.2522C31.9007 121.175 27.7275 119.498 24.6509 116.513C21.5739 113.529 17.4008 111.852 13.0497 111.852H1.57324L5.20512 108.33C9.40266 104.258 15.0965 101.971 21.0331 101.971C28.6798 101.971 35.7976 105.756 39.9084 112.01L45.9313 121.175Z" fill="#FFD08B"/>
<path d="M38.2676 61.9747L34.5549 74.7141C31.5783 84.9283 32.8847 95.8697 38.1888 105.153L40.0421 108.397C45.2899 117.581 55.262 123.28 66.0873 123.28H157.457L154.185 111.756C150.956 100.388 143.418 90.6216 133.08 84.4169L127.164 80.8649H76.3333V83.019C76.3333 84.4494 77.2739 85.7202 78.6715 86.177C84.1099 87.9545 88.0145 92.6015 88.7117 98.1269C89.7998 106.748 82.8647 114.348 73.9103 114.348H66.4775C59.3528 114.348 52.7235 110.814 48.9041 104.98L45.4582 99.7163C41.6584 93.9118 40.3587 86.8924 41.8383 80.1681L45.8407 61.9747H38.2676Z" fill="#FFD08B"/>
<path d="M127.163 80.8647H72.2266V74.5394H116.034C119.081 74.5394 121.998 75.7314 124.126 77.8463L127.163 80.8647Z" fill="#393835"/>
<path d="M95.224 124.155H70.5584C59.4109 124.155 49.1289 118.279 43.7253 108.821L41.8716 105.577C36.4156 96.0276 35.0967 84.982 38.1585 74.4757C39.144 71.0959 38.6862 67.404 36.9033 64.3464C36.6582 63.9261 36.8109 63.3925 37.2443 63.1544C37.6784 62.9167 38.2277 63.0652 38.4731 63.4852C40.4912 66.9464 41.0089 71.1258 39.8939 74.9519C36.9624 85.0115 38.2249 95.5863 43.4486 104.729L45.3024 107.973C50.3886 116.875 60.0661 122.405 70.5584 122.405H95.224C95.7221 122.405 96.125 122.797 96.125 123.279C96.125 123.762 95.7221 124.155 95.224 124.155Z" fill="#EEDEC2"/>
<path d="M96.1172 119.854H152.632L151.767 120.693C150.384 122.034 148.51 122.787 146.555 122.787H102.07C99.7167 122.787 97.5052 121.698 96.1172 119.854Z" fill="#FF6C4D"/>
<path d="M133.023 117.006C133.023 123.555 127.55 128.864 120.799 128.864C114.047 128.864 108.574 123.555 108.574 117.006C108.574 110.457 114.047 105.149 120.799 105.149C127.55 105.149 133.023 110.457 133.023 117.006Z" fill="#99A2AF"/>
<path d="M120.799 126.126C115.615 126.126 111.397 122.035 111.397 117.006C111.397 111.978 115.615 107.887 120.799 107.887C125.983 107.887 130.201 111.978 130.201 117.006C130.201 122.035 125.983 126.126 120.799 126.126ZM120.799 108.857C116.167 108.857 112.398 112.513 112.398 117.006C112.398 121.5 116.167 125.156 120.799 125.156C125.432 125.156 129.201 121.5 129.201 117.006C129.201 112.513 125.432 108.857 120.799 108.857Z" fill="#485275"/>
<path d="M126.904 117.491H114.693C114.417 117.491 114.193 117.274 114.193 117.006C114.193 116.739 114.417 116.521 114.693 116.521H126.904C127.18 116.521 127.404 116.739 127.404 117.006C127.404 117.274 127.18 117.491 126.904 117.491Z" fill="#485275"/>
<path d="M125.853 115.551H115.745C115.469 115.551 115.245 115.334 115.245 115.066C115.245 114.798 115.469 114.581 115.745 114.581H125.853C126.129 114.581 126.353 114.798 126.353 115.066C126.353 115.334 126.129 115.551 125.853 115.551Z" fill="#485275"/>
<path d="M124.442 113.611H117.156C116.88 113.611 116.656 113.393 116.656 113.126C116.656 112.858 116.88 112.64 117.156 112.64H124.442C124.718 112.64 124.941 112.858 124.941 113.126C124.941 113.393 124.718 113.611 124.442 113.611Z" fill="#485275"/>
<path d="M122.762 111.67H118.837C118.56 111.67 118.337 111.453 118.337 111.185C118.337 110.918 118.56 110.7 118.837 110.7H122.762C123.038 110.7 123.262 110.918 123.262 111.185C123.262 111.453 123.038 111.67 122.762 111.67Z" fill="#485275"/>
<path d="M125.853 119.432H115.745C115.469 119.432 115.245 119.215 115.245 118.947C115.245 118.679 115.469 118.461 115.745 118.461H125.853C126.129 118.461 126.353 118.679 126.353 118.947C126.353 119.215 126.129 119.432 125.853 119.432Z" fill="#485275"/>
<path d="M124.442 121.372H117.156C116.88 121.372 116.656 121.155 116.656 120.887C116.656 120.62 116.88 120.402 117.156 120.402H124.442C124.718 120.402 124.941 120.62 124.941 120.887C124.941 121.155 124.718 121.372 124.442 121.372Z" fill="#485275"/>
<path d="M122.762 123.313H118.837C118.56 123.313 118.337 123.095 118.337 122.827C118.337 122.56 118.56 122.342 118.837 122.342H122.762C123.038 122.342 123.262 122.56 123.262 122.827C123.262 123.095 123.038 123.313 122.762 123.313Z" fill="#485275"/>
<path d="M133.992 91.3248C128.175 87.8962 121.5 86.0826 114.694 86.0826H112.413C100.819 86.0826 90.9891 95.2805 90.9971 106.526C91.0003 111.622 92.9323 116.278 96.1169 119.855H112.058H127.999H152.631L150.466 112.378C147.921 103.59 142.034 96.0657 133.992 91.3248Z" fill="#FF6C4D"/>
<path d="M130.732 98.9629C126.473 96.4521 121.585 95.1243 116.601 95.1243H114.93C106.441 95.1243 99.2421 101.86 99.2481 110.095C99.2508 113.826 100.665 117.235 102.997 119.855H114.671H126.344H144.382L142.797 114.379C140.933 107.944 136.621 102.434 130.732 98.9629Z" fill="#FFD08B"/>
<path d="M130.991 116.835H111.966C111.667 116.835 111.426 116.6 111.426 116.31C111.426 116.02 111.667 115.785 111.966 115.785H130.991C131.289 115.785 131.532 116.02 131.532 116.31C131.532 116.6 131.289 116.835 130.991 116.835Z" fill="#485275"/>
<path d="M130.405 114.758H111.381C111.082 114.758 110.84 114.523 110.84 114.233C110.84 113.943 111.082 113.708 111.381 113.708H130.405C130.704 113.708 130.946 113.943 130.946 114.233C130.946 114.523 130.704 114.758 130.405 114.758Z" fill="#485275"/>
<path d="M129.818 112.68H110.794C110.495 112.68 110.253 112.445 110.253 112.156C110.253 111.866 110.495 111.631 110.794 111.631H129.818C130.117 111.631 130.36 111.866 130.36 112.156C130.36 112.445 130.117 112.68 129.818 112.68Z" fill="#485275"/>
<path d="M129.232 110.603H110.208C109.909 110.603 109.667 110.368 109.667 110.078C109.667 109.788 109.909 109.553 110.208 109.553H129.232C129.531 109.553 129.774 109.788 129.774 110.078C129.774 110.368 129.531 110.603 129.232 110.603Z" fill="#485275"/>
<path d="M128.646 108.525H109.622C109.323 108.525 109.081 108.291 109.081 108.001C109.081 107.711 109.323 107.476 109.622 107.476H128.646C128.945 107.476 129.188 107.711 129.188 108.001C129.188 108.291 128.945 108.525 128.646 108.525Z" fill="#485275"/>
<path d="M76.333 80.8651H127.164C126.038 81.9562 124.513 82.5697 122.922 82.5697H81.0387C79.3097 82.5697 77.6386 81.9644 76.333 80.8651Z" fill="#FF6C4D"/>
<path d="M45.8401 61.9747H35.4718H30.6934V52.5589H33.9818C36.8042 52.5589 39.5922 53.1592 42.1499 54.3167L44.5832 55.4183C46.1467 56.126 46.9646 57.8167 46.5269 59.4352L45.8401 61.9747Z" fill="#FFD08B"/>
<path d="M30.6933 52.5591H29.1006V61.975H30.6933V52.5591Z" fill="#F1C7C2"/>
<path d="M28.2891 61.9747H29.1006V52.5589H28.2891V61.9747Z" fill="white"/>
<path d="M151.107 79.5153C151.319 79.3106 151.319 78.9779 151.107 78.7735C150.896 78.5684 150.554 78.5684 150.343 78.7735L145.812 83.1674H147.342L151.107 79.5153Z" fill="#C6D2D6"/>
<path d="M145.812 83.1675L138.474 90.2855C138.262 90.4906 138.262 90.8225 138.474 91.0276C138.579 91.13 138.718 91.1812 138.857 91.1812C138.995 91.1812 139.133 91.13 139.239 91.0276L147.342 83.1675H145.812Z" fill="white"/>
<path d="M123.654 85.1641H93.1661C92.6684 85.1641 92.2646 84.7725 92.2646 84.2897C92.2646 83.8065 92.6684 83.4153 93.1661 83.4153H123.654C125.831 83.4153 127.879 82.5924 129.419 81.0991C131.299 79.2746 133.8 78.2703 136.459 78.2703H166.112C166.61 78.2703 167.013 78.6616 167.013 79.1447C167.013 79.6279 166.61 80.0192 166.112 80.0192H136.459C134.281 80.0192 132.234 80.842 130.693 82.3357C128.813 84.1594 126.313 85.1641 123.654 85.1641Z" fill="white"/>
<path d="M38.2672 61.9747H45.8404L45.6661 62.7673H38.0361L38.2672 61.9747Z" fill="#A24261"/>
<path d="M178.364 78.27H125.056V40.0242H178.364V78.27Z" fill="#FFB57B"/>
<path d="M180.501 33.7845H124.141V40.0245H180.501V33.7845Z" fill="#FFB57B"/>
<path d="M178.974 43.0558H125.666V40.0242H178.974V43.0558Z" fill="#EBA15D"/>
<path d="M149.31 51.0953C149.31 51.44 149.598 51.7196 149.953 51.7196H153.879C154.234 51.7196 154.523 51.44 154.523 51.0953C154.523 50.7506 154.234 50.471 153.879 50.471H149.953C149.598 50.471 149.31 50.7506 149.31 51.0953Z" fill="#FF6C4D"/>
<path d="M149.31 51.0953C149.31 51.44 149.598 51.7196 149.953 51.7196H153.879C154.234 51.7196 154.523 51.44 154.523 51.0953C154.523 50.7506 154.234 50.471 153.879 50.471H149.953C149.598 50.471 149.31 50.7506 149.31 51.0953Z" stroke="#FF6C4D" stroke-width="1.5"/>
<path d="M154.522 53.4364C154.522 53.0917 154.234 52.8121 153.878 52.8121H149.856C148.879 52.811 148.088 52.0432 148.087 51.0955C148.088 50.1478 148.879 49.38 149.856 49.3788H153.878C154.234 49.3788 154.522 49.0992 154.522 48.7545C154.522 48.4098 154.234 48.1302 153.878 48.1302H149.856C148.417 48.1317 147.173 49.1062 146.868 50.4712H138.69C138.335 50.4712 138.047 50.7507 138.047 51.0955C138.047 51.4402 138.335 51.7198 138.69 51.7198H146.868C147.173 53.0843 148.417 54.0588 149.856 54.0607H153.878C154.234 54.0607 154.522 53.7812 154.522 53.4364Z" fill="#FF6C4D"/>
<path d="M154.522 53.4364C154.522 53.0917 154.234 52.8121 153.878 52.8121H149.856C148.879 52.811 148.088 52.0432 148.087 51.0955C148.088 50.1478 148.879 49.38 149.856 49.3788H153.878C154.234 49.3788 154.522 49.0992 154.522 48.7545C154.522 48.4098 154.234 48.1302 153.878 48.1302H149.856C148.417 48.1317 147.173 49.1062 146.868 50.4712H138.69C138.335 50.4712 138.047 50.7507 138.047 51.0955C138.047 51.4402 138.335 51.7198 138.69 51.7198H146.868C147.173 53.0843 148.417 54.0588 149.856 54.0607H153.878C154.234 54.0607 154.522 53.7812 154.522 53.4364Z" stroke="#FF6C4D" stroke-width="1.5"/>
<path d="M152.896 58.5011C152.896 58.1564 152.607 57.8768 152.252 57.8768H148.326C147.971 57.8768 147.683 58.1564 147.683 58.5011C147.683 58.8462 147.971 59.1254 148.326 59.1254H152.252C152.607 59.1254 152.896 58.8462 152.896 58.5011Z" fill="#FF6C4D"/>
<path d="M152.896 58.5011C152.896 58.1564 152.607 57.8768 152.252 57.8768H148.326C147.971 57.8768 147.683 58.1564 147.683 58.5011C147.683 58.8462 147.971 59.1254 148.326 59.1254H152.252C152.607 59.1254 152.896 58.8462 152.896 58.5011Z" stroke="#FF6C4D" stroke-width="1.5"/>
<path d="M147.683 56.1603C147.683 56.505 147.971 56.7846 148.326 56.7846H152.349C153.325 56.7857 154.117 57.5535 154.118 58.5012C154.117 59.4486 153.325 60.2167 152.349 60.2179H148.326C147.971 60.2179 147.683 60.4975 147.683 60.8422C147.683 61.1869 147.971 61.4665 148.326 61.4665H152.349C153.788 61.4646 155.032 60.4905 155.337 59.1255H163.514C163.869 59.1255 164.158 58.846 164.158 58.5012C164.158 58.1561 163.869 57.8769 163.514 57.8769H155.337C155.032 56.512 153.788 55.5379 152.349 55.5359H148.326C147.971 55.5359 147.683 55.8151 147.683 56.1603Z" fill="#FF6C4D"/>
<path d="M147.683 56.1603C147.683 56.505 147.971 56.7846 148.326 56.7846H152.349C153.325 56.7857 154.117 57.5535 154.118 58.5012C154.117 59.4486 153.325 60.2167 152.349 60.2179H148.326C147.971 60.2179 147.683 60.4975 147.683 60.8422C147.683 61.1869 147.971 61.4665 148.326 61.4665H152.349C153.788 61.4646 155.032 60.4905 155.337 59.1255H163.514C163.869 59.1255 164.158 58.846 164.158 58.5012C164.158 58.1561 163.869 57.8769 163.514 57.8769H155.337C155.032 56.512 153.788 55.5379 152.349 55.5359H148.326C147.971 55.5359 147.683 55.8151 147.683 56.1603Z" stroke="#FF6C4D" stroke-width="1.5"/>
<path d="M85.4096 64.6277L59.9269 72.0152C54.2902 73.6496 51.7509 79.9982 54.7771 84.8926L72.2337 113.125L82.1511 108.857L67.899 82.5695L96.9217 76.6855C102.536 75.547 105.843 69.884 103.963 64.6277H85.4096Z" fill="#C8C8C8"/>
<path d="M80.8676 110.823L80.1228 109.73L74.4873 112.156L75.8137 114.498L82.0957 112.788C81.7103 112.12 81.3037 111.463 80.8676 110.823Z" fill="#F1C8AC"/>
<path d="M79.3184 115.541L78.7935 116.837L79.4935 116.359C79.7713 116.169 80.1027 116.067 80.4421 116.067H83.733C83.2537 114.944 82.708 113.849 82.096 112.788L75.8145 114.498L76.1938 115.167H79.0558C79.2544 115.167 79.3912 115.361 79.3184 115.541Z" fill="white"/>
<path d="M72.0962 121.122H85.4092L85.167 120.21C84.7908 118.795 84.3075 117.413 83.7326 116.067H80.4417C80.1023 116.067 79.7709 116.17 79.4931 116.359L78.7931 116.837L79.318 115.541C79.3907 115.362 79.254 115.168 79.0553 115.168H76.1934L74.0782 117.095C73.1204 117.969 71.8551 118.455 70.5403 118.455H69.0991C67.6876 118.455 66.4563 119.218 65.8223 120.346L68.5675 120.82C69.7324 121.021 70.9133 121.122 72.0962 121.122Z" fill="#7C7C7C"/>
<path d="M72.0966 121.123C70.9137 121.123 69.7324 121.021 68.5675 120.82L65.8227 120.346C65.5537 120.825 65.3894 121.368 65.3682 121.949L69.5625 122.318C70.2257 122.376 70.8913 122.405 71.5573 122.405H85.7506L85.4092 121.123H72.0966Z" fill="white"/>
<path d="M80.1228 109.73L74.4873 112.156L75.0961 113.23L81.2322 111.374L80.1228 109.73Z" fill="#7C7C7C"/>
<path d="M79.7564 20.8981L78.9849 16.6532C78.7266 15.232 77.4542 14.1959 75.9666 14.1959H71.5752L71.9678 16.2119C72.2516 17.6714 72.2244 19.1721 71.8866 20.6208L71.6943 21.4448C71.6132 21.7938 71.887 22.1254 72.2556 22.1254H73.1431C74.2772 26.1039 79.2643 27.8008 82.7275 25.2206L88.1735 21.1637L85.2824 23.1223C83.156 24.5633 80.2065 23.3759 79.7564 20.8981Z" fill="#F1C8AC"/>
<path d="M71.292 12.742L71.575 14.1961H75.9657C77.4536 14.1961 78.726 15.2323 78.9847 16.6534L79.7558 20.8988C80.206 23.3766 83.1555 24.5636 85.2818 23.123L88.1729 21.164L88.1733 21.1636V12.742H71.292Z" fill="#EBA48E"/>
<path d="M88.173 21.1631L82.7266 25.2212L83.4517 27.2387L88.173 21.1631Z" fill="#7C7C7C"/>
<path d="M91.9848 26.7663L88.173 21.1634L83.4521 27.2382L84.687 30.6762L91.9848 26.7663Z" fill="#F1C8AC"/>
<path d="M74.8496 17.5451C74.932 18.0309 74.7797 18.4594 74.5094 18.5029C74.2392 18.5459 73.9533 18.1872 73.871 17.7013C73.7886 17.2155 73.9409 16.7866 74.2112 16.7436C74.4814 16.7005 74.7673 17.0596 74.8496 17.5451Z" fill="#7C7C7C"/>
<path d="M73.5594 15.8354C74.012 15.5872 74.5181 15.6209 74.9482 15.897C75.3712 16.1688 75.7657 15.5089 75.3452 15.2386C74.686 14.8151 73.8473 14.8016 73.1629 15.1769C72.7223 15.4185 73.1181 16.0773 73.5594 15.8354Z" fill="#7C7C7C"/>
<path d="M74.6273 20.513L75.5072 20.8069C76.7957 21.2377 78.1888 21.2788 79.5021 20.9248L81.6976 20.3249L81.1823 19.3268L79.5021 19.7797C78.1888 20.1338 76.7957 20.0927 75.5072 19.6618L74.6273 19.3679C73.8494 19.1077 73.0514 18.9076 72.2411 18.7688L71.9261 18.7149L71.6387 19.8235L72.2411 19.9139C73.0514 20.0527 73.8494 20.2532 74.6273 20.513Z" fill="white"/>
<path d="M81.6979 20.3247L79.5024 20.925C78.1891 21.2786 76.7963 21.2375 75.5075 20.8071L74.6276 20.5128C73.8501 20.253 73.0521 20.0525 72.2418 19.9137L71.639 19.8233L71.5442 20.1897C71.3799 20.8241 71.4151 21.4919 71.645 22.1069L72.1379 23.4253C73.003 25.7376 75.2077 27.3259 77.7398 27.4608C79.3165 27.5446 80.8688 27.0537 82.0912 26.0842L83.9226 24.6324L81.6979 20.3247Z" fill="#FFAC75"/>
<path d="M79.5508 19.7671L79.7559 20.8986C80.0857 22.7122 81.7543 23.829 83.4589 23.7348L81.1826 19.327L79.5508 19.7671Z" fill="#7C7C7C"/>
<path d="M82.7276 22.0964L81.0646 26.6934C81.0098 26.8454 81.1378 27.0005 81.3029 26.9815C82.5457 26.8381 83.6463 26.1339 84.2719 25.0819L86.3823 21.5338L82.7276 22.0964Z" fill="#C8C8C8"/>
<path d="M81.1011 15.0688L82.0178 20.1067C82.1745 20.9664 83.0956 21.4787 83.9395 21.1758L92.9694 17.9321V11.663C92.9694 5.22139 87.5862 6.10352e-05 80.9452 6.10352e-05C74.4262 6.10352e-05 69.1226 5.03332 68.9307 11.3117H76.4842C78.7593 11.3117 80.7058 12.8957 81.1011 15.0688Z" fill="#FFD08B"/>
<path d="M88.4133 9.46937C87.8285 9.46937 87.2628 9.16148 86.9734 8.62364C85.7933 6.43313 83.4834 5.07244 80.9453 5.07244C80.049 5.07244 79.3223 4.36747 79.3223 3.49809C79.3223 2.62871 80.049 1.92413 80.9453 1.92413C84.6967 1.92413 88.1091 3.93278 89.8501 7.16601C90.2655 7.93651 89.9572 8.88771 89.1629 9.29022C88.9231 9.41159 88.6664 9.46937 88.4133 9.46937Z" fill="white"/>
<path d="M75.9792 6.6273C75.4791 6.6273 74.9854 6.40356 74.6676 5.98206C74.1383 5.28019 74.2962 4.29525 75.0198 3.78223L75.0957 3.72911C75.8237 3.22268 76.8375 3.38516 77.36 4.09168C77.8821 4.79858 77.7146 5.78197 76.9862 6.28839L76.9354 6.32368C76.6464 6.52881 76.3118 6.6273 75.9792 6.6273Z" fill="white"/>
<path d="M83.9399 21.1758C83.096 21.479 82.1745 20.9664 82.0182 20.1067L81.1016 15.0688C80.7062 12.8957 78.7593 11.3121 76.4843 11.3121H68.9311C68.9271 11.4288 68.9219 11.5455 68.9219 11.6634V12.7422H76.0841C77.8339 12.7422 79.3314 13.9605 79.6352 15.6322L80.5451 20.6306C80.8701 22.4163 82.8325 23.4353 84.5447 22.7071L92.1067 19.4905C92.6308 19.2672 92.9694 18.7642 92.9694 18.209V17.9325L83.9399 21.1758Z" fill="#FF6C4D"/>
<path d="M83.1995 61.9377L85.4102 52.5591L82.2361 35.6904C81.8583 33.6817 82.8453 31.6634 84.6878 30.6761L91.9856 26.7666C92.941 26.2547 94.1239 26.3718 94.9526 27.0613C100.964 32.0593 104.726 39.1372 105.435 46.7864L106.809 61.6081C106.959 63.2302 105.642 64.6277 103.963 64.6277H85.4102C83.9539 64.6277 82.8749 63.3151 83.1995 61.9377Z" fill="#FF6C4D"/>
<path d="M94.2023 33.7786L94.2638 34.0078C95.0306 36.8738 94.4693 39.9217 92.7267 42.3526L85.409 52.5591L83.9219 44.6544L94.2023 33.7786Z" fill="#FF6C4D"/>
<path d="M84.0037 28.772L81.998 29.7779L84.0037 31.8765L84.6877 30.6764L84.0037 28.772Z" fill="#FF6C4D"/>
<path d="M81.9979 29.7774L81.543 33.3635L83.6082 31.4638L81.9979 29.7774Z" fill="#FF6C4D"/>
<path d="M93.1665 26.4504L91.0401 24.6329L83.4521 28.6556L84.4879 32.9118L93.1665 26.4504Z" fill="#1E1E1E"/>
<path d="M50.3234 56.3138H44.6635C43.6102 56.3138 42.7559 57.1421 42.7559 58.1642V61.5944C42.7559 62.6162 43.6102 63.4449 44.6635 63.4449H49.2449V62.0803C50.6257 62.0803 51.9497 61.5483 52.9259 60.601L53.6143 59.9336L50.3234 56.3138Z" fill="#F1C8AC"/>
<path d="M50.3232 56.3132L53.6141 59.9331L67.7467 56.7464L65.7918 51.6751L50.3232 56.3132Z" fill="#F1C8AC"/>
<path d="M65.7924 51.6746L65.102 51.8817L64.8789 57.3935L67.7468 56.7463L65.7924 51.6746Z" fill="#EBA48E"/>
<path d="M92.852 32.0602C90.9879 30.6417 88.3038 30.8949 86.7567 32.6356L72.0969 49.1298L69.4473 49.9961L71.909 56.3827L73.2986 56.0907C75.4985 55.6281 77.5046 54.5353 79.0564 52.954L93.3269 38.4087C95.1298 36.5707 94.9096 33.6264 92.852 32.0602Z" fill="#FF6C4D"/>
<path d="M71.9875 56.586L71.9091 56.3828L69.4474 49.9966L69.2039 49.365C69.0644 49.0032 68.6486 48.8194 68.2756 48.9547L65.8527 49.8334C65.4793 49.9691 65.2902 50.372 65.4297 50.7342L65.6268 51.246L67.9294 57.2189L68.2133 57.9549C68.3528 58.3166 68.7682 58.5004 69.1411 58.3651L71.5645 57.4864C71.9375 57.3511 72.127 56.9482 71.9875 56.586Z" fill="#FF6C4D"/>
<path d="M87.6836 33.3223C89.0468 31.7883 91.3235 31.3753 93.166 32.3269C93.0657 32.2346 92.9621 32.1446 92.8514 32.0605C90.9873 30.6416 88.3037 30.8949 86.7566 32.6356L72.0959 49.1297L69.4463 49.9964L69.8421 51.0213L72.8175 50.0484L87.6836 33.3223Z" fill="#1E1E1E"/>
<path d="M51.1045 62.0716C51.5346 61.3093 52.5213 61.0293 53.3076 61.4477L53.3136 61.4508C53.2808 61.4303 53.2524 61.4054 53.2176 61.3868L49.5886 59.4581C48.8022 59.04 47.8156 59.3196 47.3855 60.082C46.9549 60.8443 47.2427 61.8014 48.0287 62.219L51.6522 64.1447C50.9434 63.7014 50.6927 62.8003 51.1045 62.0716Z" fill="#7C7C7C"/>
<path d="M52.4369 64.3419C53.0105 64.3419 53.5666 64.046 53.8612 63.5237C54.273 62.7951 54.0223 61.8943 53.3135 61.4507L53.3079 61.4476C52.5216 61.0295 51.535 61.3091 51.1048 62.0715C50.6931 62.8001 50.9437 63.7013 51.6525 64.1445L51.6577 64.148C51.9056 64.2794 52.173 64.3419 52.4369 64.3419Z" fill="#485275"/>
</svg>
