<svg width="201" height="158" viewBox="0 0 201 158" fill="none" xmlns="http://www.w3.org/2000/svg">
<path d="M41.4338 51.494L9.38619 71.1506C8.89013 72.1447 8.4344 73.1666 8.01658 74.2174L44.466 51.8615C43.4514 51.6959 42.4391 51.5595 41.4338 51.494Z" fill="#FFA16E"/>
<path d="M57.434 57.0518L5.0709 89.2301C5.06127 89.9763 5.03208 90.7256 5.06103 91.4649L59.0847 58.2664C58.5422 57.8495 57.9996 57.4352 57.434 57.0518Z" fill="#FFA16E"/>
<path d="M66.9397 66.5937L7.2801 103.327C7.4889 103.942 7.70731 104.551 7.94366 105.151L67.9817 68.1847C67.6475 67.6431 67.2981 67.1158 66.9397 66.5937Z" fill="#FFA16E"/>
<path d="M72.4981 78.5676L13.4948 114.969C13.8899 115.477 14.3202 115.949 14.7389 116.434L73.0087 80.4879C72.8603 79.8389 72.676 79.2044 72.4981 78.5676Z" fill="#FFA16E"/>
<path d="M73.9281 93.1067L23.8876 124.039C24.5313 124.406 25.2017 124.722 25.87 125.045L73.691 95.4855C73.7952 94.6898 73.8687 93.8976 73.9281 93.1067Z" fill="#FFA16E"/>
<path d="M64.1263 116.855C65.3042 115.53 66.3933 114.107 67.3918 112.594L42.3364 128.111C44.0028 127.967 45.6456 127.712 47.2491 127.307L64.1263 116.855Z" fill="#FFA16E"/>
<g opacity="0.5">
<path d="M9.88686 105.529C17.3538 125.134 37.3775 138.817 53.5952 147.07L64.2692 147.025L83.0345 146.94L83.9503 145.497C73.462 134.878 63.8653 127.03 55.3065 121.249C55.3108 121.244 55.3108 121.244 55.3065 121.244C26.8587 102.015 9.88686 105.529 9.88686 105.529Z" fill="#FF6C4D"/>
</g>
<g opacity="0.5">
<path d="M53.5366 115.803C53.5366 115.803 43.5437 54.6817 13.4084 36.9235C13.4084 36.9235 5.78006 68.5107 42.9613 122.847" fill="#FF6C4D"/>
</g>
<path d="M41.959 32.964H170.183V150.375H41.959V32.964Z" fill="white"/>
<path d="M41.959 32.964H170.183V150.375H41.959V32.964Z" stroke="#FFA16E" stroke-width="8" stroke-miterlimit="10"/>
<path d="M77.5067 144.62H47.4785V88.4497C47.4785 87.3008 48.3491 86.3693 49.4228 86.3693H75.5624C76.6361 86.3693 77.5067 87.3008 77.5067 88.4497V144.62Z" fill="#FF6C4D"/>
<path d="M170.631 32.9632H41.5127V13.6891C41.5127 12.1491 42.6794 10.901 44.1189 10.901H168.024C169.464 10.901 170.63 12.1491 170.63 13.6891L170.631 32.9632Z" fill="white"/>
<path d="M170.631 32.9632H41.5127V13.6891C41.5127 12.1491 42.6794 10.901 44.1189 10.901H168.024C169.464 10.901 170.63 12.1491 170.63 13.6891L170.631 32.9632Z" stroke="#FFA16E" stroke-width="8" stroke-miterlimit="10"/>
<path d="M170.636 19.797V32.9694H41.5059V19.797H170.636Z" fill="#FF6C4D"/>
<path d="M170.636 13.673V32.9697H41.5059V13.673C41.5059 12.1662 42.6778 10.9025 44.1094 10.9025H168.033C169.465 10.9025 170.636 12.1662 170.636 13.673Z" stroke="#FFA16E" stroke-width="8" stroke-miterlimit="10"/>
<path d="M151.46 27.4807H60.6825C60.6151 27.4807 60.5605 27.4196 60.5605 27.3441V4.1544C60.5605 4.0789 60.6151 4.01774 60.6825 4.01774H151.46C151.527 4.01774 151.582 4.0789 151.582 4.1544V27.3441C151.582 27.4196 151.527 27.4807 151.46 27.4807Z" fill="white"/>
<path d="M151.46 27.4807H60.6825C60.6151 27.4807 60.5605 27.4196 60.5605 27.3441V4.1544C60.5605 4.0789 60.6151 4.01774 60.6825 4.01774H151.46C151.527 4.01774 151.582 4.0789 151.582 4.1544V27.3441C151.582 27.4196 151.527 27.4807 151.46 27.4807Z" stroke="#FFA16E" stroke-width="8" stroke-miterlimit="10"/>
<path d="M148.811 10.9507V27.4769H63.5051C61.8996 27.4769 60.5547 25.9704 60.5547 24.1719V7.64567H145.861C147.466 7.64567 148.811 9.1039 148.811 10.9507Z" fill="#FF6C4D"/>
<path d="M41.9596 67.9142C36.0582 67.9142 31.2744 62.7963 31.2744 56.4827V48.314L52.6449 47.1694V56.4827C52.6449 62.7963 47.8607 67.9142 41.9596 67.9142Z" fill="white"/>
<path d="M41.9596 67.9142C36.0582 67.9142 31.2744 62.7963 31.2744 56.4827V48.314L52.6449 47.1694V56.4827C52.6449 62.7963 47.8607 67.9142 41.9596 67.9142Z" stroke="#FFA16E" stroke-width="8" stroke-miterlimit="10"/>
<path d="M63.3307 67.9142C57.4292 67.9142 52.6455 62.7963 52.6455 56.4827V47.1694H74.0157V56.4827C74.0159 62.7963 69.2322 67.9142 63.3307 67.9142Z" fill="white"/>
<path d="M63.3307 67.9142C57.4292 67.9142 52.6455 62.7963 52.6455 56.4827V47.1694H74.0157V56.4827C74.0159 62.7963 69.2322 67.9142 63.3307 67.9142Z" stroke="#FFA16E" stroke-width="8" stroke-miterlimit="10"/>
<path d="M84.7001 67.9142C78.7986 67.9142 74.0146 62.7963 74.0146 56.4827V47.1694H95.3851V56.4827C95.3851 62.7963 90.6011 67.9142 84.7001 67.9142Z" fill="white"/>
<path d="M84.7001 67.9142C78.7986 67.9142 74.0146 62.7963 74.0146 56.4827V47.1694H95.3851V56.4827C95.3851 62.7963 90.6011 67.9142 84.7001 67.9142Z" stroke="#FFA16E" stroke-width="8" stroke-miterlimit="10"/>
<path d="M106.071 67.9142C100.169 67.9142 95.3857 62.7963 95.3857 56.4827V47.1694H116.756V56.4827C116.756 62.7963 111.972 67.9142 106.071 67.9142Z" fill="white"/>
<path d="M106.071 67.9142C100.169 67.9142 95.3857 62.7963 95.3857 56.4827V47.1694H116.756V56.4827C116.756 62.7963 111.972 67.9142 106.071 67.9142Z" stroke="#FFA16E" stroke-width="8" stroke-miterlimit="10"/>
<path d="M127.442 67.9142C121.541 67.9142 116.757 62.7963 116.757 56.4827V47.1694H138.127V56.4827C138.127 62.7963 133.343 67.9142 127.442 67.9142Z" fill="white"/>
<path d="M127.442 67.9142C121.541 67.9142 116.757 62.7963 116.757 56.4827V47.1694H138.127V56.4827C138.127 62.7963 133.343 67.9142 127.442 67.9142Z" stroke="#FFA16E" stroke-width="8" stroke-miterlimit="10"/>
<path d="M148.811 67.9142C142.91 67.9142 138.126 62.7963 138.126 56.4827V47.1694H159.496V56.4827C159.497 62.7963 154.713 67.9142 148.811 67.9142Z" fill="white"/>
<path d="M148.811 67.9142C142.91 67.9142 138.126 62.7963 138.126 56.4827V47.1694H159.496V56.4827C159.497 62.7963 154.713 67.9142 148.811 67.9142Z" stroke="#FFA16E" stroke-width="8" stroke-miterlimit="10"/>
<path d="M170.182 67.9142C164.281 67.9142 159.497 62.7963 159.497 56.4827V47.1694L180.867 47.9576V56.4827C180.868 62.7963 176.084 67.9142 170.182 67.9142Z" fill="white"/>
<path d="M170.182 67.9142C164.281 67.9142 159.497 62.7963 159.497 56.4827V47.1694L180.867 47.9576V56.4827C180.868 62.7963 176.084 67.9142 170.182 67.9142Z" stroke="#FFA16E" stroke-width="8" stroke-miterlimit="10"/>
<path d="M51.2402 47.154V52.5009C51.2402 58.8195 46.4672 63.9231 40.5662 63.9231C37.9191 63.9231 35.4893 62.9023 33.6236 61.2012C33.0163 59.7429 32.6689 58.1876 32.6689 56.4865V47.154H51.2402Z" fill="#FF6C4D"/>
<path d="M61.9352 63.9176C56.0337 63.9176 51.25 58.7997 51.25 52.4861V43.173H72.6202V52.4861C72.6204 58.7997 67.8367 63.9176 61.9352 63.9176Z" fill="#FF6C4D"/>
<path d="M83.3073 63.9176C77.4058 63.9176 72.6221 58.7997 72.6221 52.4861V43.173H93.9923V52.4861C93.9923 58.7997 89.2083 63.9176 83.3073 63.9176Z" fill="#FF6C4D"/>
<path d="M104.678 63.9176C98.7761 63.9176 93.9922 58.7997 93.9922 52.4861V43.173H115.363V52.4861C115.363 58.7997 110.579 63.9176 104.678 63.9176Z" fill="#FF6C4D"/>
<path d="M126.048 63.9176C120.146 63.9176 115.362 58.7997 115.362 52.4861V43.173H136.733V52.4861C136.733 58.7997 131.949 63.9176 126.048 63.9176Z" fill="#FF6C4D"/>
<path d="M147.418 63.9176C141.516 63.9176 136.732 58.7997 136.732 52.4861V43.173H158.103V52.4861C158.103 58.7997 153.319 63.9176 147.418 63.9176Z" fill="#FF6C4D"/>
<path d="M168.789 63.9176C162.887 63.9176 158.104 58.7997 158.104 52.4861V43.173H179.474V52.4861C179.474 58.7997 174.69 63.9176 168.789 63.9176Z" fill="#FF6C4D"/>
<path d="M52.6572 47.1625V56.4953C52.6572 62.8139 47.8409 67.9174 41.9396 67.9174C37.6005 67.9174 33.8691 65.1467 32.2203 61.2097C31.613 59.7515 31.2656 58.1964 31.2656 56.4953L31.2744 48.3142L52.6572 47.1625Z" stroke="#FFA16E" stroke-width="8" stroke-miterlimit="10"/>
<path d="M63.3307 67.9142C57.4292 67.9142 52.6455 62.7963 52.6455 56.4827V47.1694H74.0157V56.4827C74.0159 62.7963 69.2322 67.9142 63.3307 67.9142Z" stroke="#FFA16E" stroke-width="8" stroke-miterlimit="10"/>
<path d="M84.7001 67.9142C78.7986 67.9142 74.0146 62.7963 74.0146 56.4827V47.1694H95.3851V56.4827C95.3851 62.7963 90.6011 67.9142 84.7001 67.9142Z" stroke="#FFA16E" stroke-width="8" stroke-miterlimit="10"/>
<path d="M106.071 67.9142C100.169 67.9142 95.3857 62.7963 95.3857 56.4827V47.1694H116.756V56.4827C116.756 62.7963 111.972 67.9142 106.071 67.9142Z" stroke="#FFA16E" stroke-width="8" stroke-miterlimit="10"/>
<path d="M127.442 67.9142C121.541 67.9142 116.757 62.7963 116.757 56.4827V47.1694H138.127V56.4827C138.127 62.7963 133.343 67.9142 127.442 67.9142Z" stroke="#FFA16E" stroke-width="8" stroke-miterlimit="10"/>
<path d="M148.811 67.9142C142.91 67.9142 138.126 62.7963 138.126 56.4827V47.1694H159.496V56.4827C159.497 62.7963 154.713 67.9142 148.811 67.9142Z" stroke="#FFA16E" stroke-width="8" stroke-miterlimit="10"/>
<path d="M170.182 67.9142C164.281 67.9142 159.497 62.7963 159.497 56.4827V47.1694L180.867 47.9576V56.4827C180.868 62.7963 176.084 67.9142 170.182 67.9142Z" stroke="#FFA16E" stroke-width="8" stroke-miterlimit="10"/>
<path d="M52.645 47.1699H31.2793L41.5015 25.4106H59.95L52.645 47.1699Z" fill="white"/>
<path d="M52.645 47.1699H31.2793L41.5015 25.4106H59.95L52.645 47.1699Z" stroke="#FFA16E" stroke-width="8" stroke-miterlimit="10"/>
<path d="M74.0159 47.1699H52.6455L59.9505 25.4106H78.3989L74.0159 47.1699Z" fill="white"/>
<path d="M74.0159 47.1699H52.6455L59.9505 25.4106H78.3989L74.0159 47.1699Z" stroke="#FFA16E" stroke-width="8" stroke-miterlimit="10"/>
<path d="M95.3851 47.1699H74.0146L78.3976 25.4106H96.8461L95.3851 47.1699Z" fill="white"/>
<path d="M95.3851 47.1699H74.0146L78.3976 25.4106H96.8461L95.3851 47.1699Z" stroke="#FFA16E" stroke-width="8" stroke-miterlimit="10"/>
<path d="M116.756 47.1699H95.3857L96.8468 25.4106H115.295L116.756 47.1699Z" fill="white"/>
<path d="M116.756 47.1699H95.3857L96.8468 25.4106H115.295L116.756 47.1699Z" stroke="#FFA16E" stroke-width="8" stroke-miterlimit="10"/>
<path d="M138.126 47.1699H116.756L115.295 25.4106H133.743L138.126 47.1699Z" fill="white"/>
<path d="M138.126 47.1699H116.756L115.295 25.4106H133.743L138.126 47.1699Z" stroke="#FFA16E" stroke-width="8" stroke-miterlimit="10"/>
<path d="M159.498 47.1699H138.127L133.744 25.4106H152.193L159.498 47.1699Z" fill="white"/>
<path d="M159.498 47.1699H138.127L133.744 25.4106H152.193L159.498 47.1699Z" stroke="#FFA16E" stroke-width="8" stroke-miterlimit="10"/>
<path d="M181.017 46.9512L159.497 47.1699L152.192 25.4106H170.641L181.017 46.9512Z" fill="white"/>
<path d="M181.017 46.9512L159.497 47.1699L152.192 25.4106H170.641L181.017 46.9512Z" stroke="#FFA16E" stroke-width="8" stroke-miterlimit="10"/>
<path d="M176.104 139.648H36.0383C33.3429 139.648 31.1582 141.985 31.1582 144.869V152.52C31.1582 153.337 31.7776 154 32.5415 154H179.601C180.365 154 180.985 153.337 180.985 152.52V144.869C180.985 141.985 178.8 139.648 176.104 139.648Z" fill="white"/>
<path d="M176.104 139.648H36.0383C33.3429 139.648 31.1582 141.985 31.1582 144.869V152.52C31.1582 153.337 31.7776 154 32.5415 154H179.601C180.365 154 180.985 153.337 180.985 152.52V144.869C180.985 141.985 178.8 139.648 176.104 139.648Z" stroke="#FFA16E" stroke-width="8" stroke-miterlimit="10"/>
<path d="M176.104 139.648H36.0383C33.3429 139.648 31.1582 141.985 31.1582 144.869V152.52C31.1582 153.337 31.7776 154 32.5415 154H179.601C180.365 154 180.985 153.337 180.985 152.52V144.869C180.985 141.985 178.8 139.648 176.104 139.648Z" fill="#FF6C4D"/>
<path d="M176.104 139.648H36.0383C33.3429 139.648 31.1582 141.985 31.1582 144.869V152.52C31.1582 153.337 31.7776 154 32.5415 154H179.601C180.365 154 180.985 153.337 180.985 152.52V144.869C180.985 141.985 178.8 139.648 176.104 139.648Z" stroke="#FFA16E" stroke-width="8" stroke-miterlimit="10"/>
<path d="M157.553 122.333H91.7365C90.6628 122.333 89.792 121.519 89.792 120.515V86.651C89.792 85.6468 90.6628 84.8329 91.7365 84.8329H157.553C158.626 84.8329 159.497 85.6468 159.497 86.651V120.515C159.497 121.519 158.626 122.333 157.553 122.333Z" fill="white"/>
<path d="M158.246 122.068H101.861C100.941 122.068 100.195 121.262 100.195 120.267V86.7234C100.195 85.7287 100.941 84.9225 101.861 84.9225H158.246C159.165 84.9225 159.911 85.7287 159.911 86.7234V120.267C159.911 121.262 159.165 122.068 158.246 122.068Z" stroke="#FFA16E" stroke-width="8" stroke-miterlimit="10"/>
<path d="M80.548 139.647H50.5195V83.4773C50.5195 82.3284 51.3904 81.3971 52.4641 81.3971H78.6034C79.6771 81.3971 80.548 82.3284 80.548 83.4773V139.647Z" fill="white"/>
<path d="M90.0739 139.833H50.6006V86.7972C50.6006 85.7124 51.7453 84.8332 53.1568 84.8332H87.5178C88.9292 84.8332 90.0739 85.7124 90.0739 86.7972V139.833Z" stroke="#FFA16E" stroke-width="8" stroke-miterlimit="10"/>
<path d="M78.1652 114.3C79.4139 114.3 80.4261 113.217 80.4261 111.881V107.527C80.4261 106.192 79.4139 105.109 78.1652 105.109C76.9164 105.109 75.9043 106.192 75.9043 107.527V111.881C75.9043 113.217 76.9164 114.3 78.1652 114.3Z" fill="white"/>
<path d="M78.1652 114.3C79.4139 114.3 80.4261 113.217 80.4261 111.881V107.527C80.4261 106.192 79.4139 105.109 78.1652 105.109C76.9164 105.109 75.9043 106.192 75.9043 107.527V111.881C75.9043 113.217 76.9164 114.3 78.1652 114.3Z" stroke="#FFA16E" stroke-width="8" stroke-miterlimit="10"/>
<path d="M111.329 97.6863L125.993 114.964" stroke="#FF6C4D" stroke-width="8" stroke-miterlimit="10" stroke-linecap="round"/>
<path d="M120.728 92.333L135.391 109.611" stroke="#FF6C4D" stroke-width="8" stroke-miterlimit="10" stroke-linecap="round"/>
<path d="M151.588 6.91519V21.5334C151.588 23.0543 150.33 24.3218 148.811 24.4064H63.5051C61.8996 24.4064 60.5547 23.0966 60.5547 21.5334V6.91519C60.5547 5.30974 61.8996 4 63.5051 4H148.637C150.243 4 151.588 5.30974 151.588 6.91519Z" stroke="#FFA16E" stroke-width="8" stroke-miterlimit="10"/>
<path d="M168.788 28.8059C169.081 29.1847 175.166 43.0066 175.166 43.0066" stroke="#FF6C4D" stroke-width="8" stroke-miterlimit="10" stroke-linecap="round"/>
<path d="M149.341 28.8059L154.163 43.0066" stroke="#FF6C4D" stroke-width="8" stroke-miterlimit="10" stroke-linecap="round"/>
<path d="M130.608 28.8059L132.775 41.7714" stroke="#FF6C4D" stroke-width="8" stroke-miterlimit="10" stroke-linecap="round"/>
<path d="M111.726 28.8059L112.255 42.3346" stroke="#FF6C4D" stroke-width="8" stroke-miterlimit="10" stroke-linecap="round"/>
<path d="M93.6297 28.8059L91.8604 42.3346" stroke="#FF6C4D" stroke-width="8" stroke-miterlimit="10" stroke-linecap="round"/>
<path d="M74.4177 29.4475C74.2525 30.5957 71.5234 43.0064 71.5234 43.0064" stroke="#FF6C4D" stroke-width="8" stroke-miterlimit="10" stroke-linecap="round"/>
<path d="M55.5565 28.8059L50.3682 43.1732" stroke="#FF6C4D" stroke-width="8" stroke-miterlimit="10" stroke-linecap="round"/>
<path d="M7.25488 154H200.5" stroke="#FFA16E" stroke-width="8" stroke-miterlimit="10"/>
</svg>
