<svg width="100" height="100" viewBox="0 0 100 100" fill="none" xmlns="http://www.w3.org/2000/svg">
<rect width="100" height="100" fill="white"/>
<path d="M63.1761 83.1364H20.6241C20.2431 83.1386 19.8659 83.0673 19.5173 82.9274C19.1688 82.7876 18.8567 82.5822 18.6017 82.3248C18.3467 82.0675 18.1544 81.764 18.0376 81.4343C17.9209 81.1046 17.8822 80.7562 17.9241 80.4118L22.7301 41.1391C22.8035 40.5361 23.1201 39.979 23.6187 39.5755C24.1173 39.1722 24.7626 38.951 25.4301 38.9546H58.3701C59.0376 38.951 59.6829 39.1722 60.1815 39.5755C60.6801 39.979 60.9967 40.5361 61.0701 41.1391L65.8761 80.4118C65.918 80.7562 65.8793 81.1046 65.7625 81.4343C65.6457 81.764 65.4535 82.0675 65.1985 82.3248C64.9435 82.5822 64.6314 82.7876 64.2828 82.9274C63.9343 83.0673 63.5571 83.1386 63.1761 83.1364Z" fill="#FFE698"/>
<path d="M33.7998 48.7728V53.6819C33.7998 55.6349 34.6532 57.5078 36.1722 58.8888C37.6913 60.2697 39.7515 61.0455 41.8998 61.0455C44.0481 61.0455 46.1083 60.2697 47.6274 58.8888C49.1464 57.5078 49.9998 55.6349 49.9998 53.6819V48.7728" stroke="#FFC920" stroke-width="4" stroke-linecap="round" stroke-linejoin="round"/>
<path d="M63.1761 83.1364H20.6241C20.2431 83.1386 19.8659 83.0673 19.5173 82.9274C19.1688 82.7876 18.8567 82.5822 18.6017 82.3248C18.3467 82.0675 18.1544 81.764 18.0376 81.4343C17.9209 81.1046 17.8822 80.7562 17.9241 80.4119L22.7301 41.1391C22.8035 40.5361 23.1201 39.979 23.6187 39.5755C24.1173 39.1722 24.7626 38.951 25.4301 38.9546H58.3701C59.0376 38.951 59.6829 39.1722 60.1815 39.5755C60.6801 39.979 60.9967 40.5361 61.0701 41.1391L65.8761 80.4119C65.918 80.7562 65.8793 81.1046 65.7625 81.4343C65.6457 81.764 65.4535 82.0675 65.1985 82.3248C64.9435 82.5822 64.6314 82.7876 64.2828 82.9274C63.9343 83.0673 63.5571 83.1386 63.1761 83.1364Z" stroke="#FFC920" stroke-width="4" stroke-linecap="round" stroke-linejoin="round"/>
<path d="M83.2402 34.0728C83.2402 25.7885 76.5245 19.0728 68.2402 19.0728C59.956 19.0728 53.2402 25.7885 53.2402 34.0728C53.2402 42.357 59.956 49.0728 68.2402 49.0728C76.5245 49.0728 83.2402 42.357 83.2402 34.0728Z" fill="#FF6347"/>
<path d="M63.0952 34.02C63.0952 31.7133 63.5085 29.9067 64.3352 28.6C65.1752 27.2933 66.5618 26.64 68.4952 26.64C70.4285 26.64 71.8085 27.2933 72.6352 28.6C73.4752 29.9067 73.8952 31.7133 73.8952 34.02C73.8952 36.34 73.4752 38.16 72.6352 39.48C71.8085 40.8 70.4285 41.46 68.4952 41.46C66.5618 41.46 65.1752 40.8 64.3352 39.48C63.5085 38.16 63.0952 36.34 63.0952 34.02ZM71.1352 34.02C71.1352 33.0333 71.0685 32.2067 70.9352 31.54C70.8152 30.86 70.5618 30.3067 70.1752 29.88C69.8018 29.4533 69.2418 29.24 68.4952 29.24C67.7485 29.24 67.1818 29.4533 66.7952 29.88C66.4218 30.3067 66.1685 30.86 66.0352 31.54C65.9152 32.2067 65.8552 33.0333 65.8552 34.02C65.8552 35.0333 65.9152 35.8867 66.0352 36.58C66.1552 37.26 66.4085 37.8133 66.7952 38.24C67.1818 38.6533 67.7485 38.86 68.4952 38.86C69.2418 38.86 69.8085 38.6533 70.1952 38.24C70.5818 37.8133 70.8352 37.26 70.9552 36.58C71.0752 35.8867 71.1352 35.0333 71.1352 34.02Z" fill="white"/>
</svg>
