<svg width="285" height="150" viewBox="0 0 285 150" fill="none" xmlns="http://www.w3.org/2000/svg">
<g clip-path="url(#clip0_81_1086)">
<path d="M233.006 105.691C232.336 109.444 233.117 113.379 231.58 117.023C231.377 117.503 231.229 118.013 230.976 118.465C228.962 122.065 226.96 125.672 224.883 129.235C224.28 130.271 223.506 131.224 222.709 132.124C221.843 133.101 221.119 132.534 220.605 131.684C219.645 130.095 218.436 128.563 217.913 126.831C217.463 125.336 217.61 123.558 217.89 121.976C218.124 120.658 218.884 119.417 219.519 118.198C219.717 117.817 220.255 117.406 220.66 117.382C221.823 117.312 221.811 116.649 221.729 115.645C221.865 115.389 221.925 115.305 221.978 115.216C221.978 115.216 221.97 115.241 222.083 115.217C222.919 114.711 223.747 114.333 224.345 113.728C226.577 111.467 228.701 109.1 230.943 106.85C231.479 106.312 232.311 106.069 233.006 105.691Z" fill="#67522C"/>
<path d="M172.441 73.8114C172.163 76.1635 170.299 76.7834 168.467 77.2752C167.476 77.5415 166.644 77.6603 166.726 78.9561C166.74 79.182 166.481 79.4504 166.301 79.6589C165.656 80.4075 164.685 81.0355 164.394 81.8976C163.719 83.8979 162.647 85.5082 161.032 86.8337C160.607 87.183 160.253 87.7501 160.102 88.2837C159.309 91.0962 158.211 91.8352 155.327 91.4852C153.823 91.3025 152.305 91.233 150.64 90.9674C151.098 89.9235 151.648 88.9742 152.339 88.1437C152.858 87.5213 153.612 87.1011 154.172 86.5071C157.515 82.96 160.83 79.3866 164.159 75.8259C167.728 72.0071 171.314 68.2036 174.859 64.361C175.228 63.961 175.363 63.3447 175.606 62.8288C176.505 62.4759 177.382 62.0398 178.309 61.7912C179.566 61.4536 180.863 61.2657 182.14 61.0018C182.587 60.9096 183.026 60.7827 183.581 60.7962C183.241 61.593 182.87 62.3433 182.321 62.9252C179.343 66.0834 176.309 69.1905 173.325 72.3433C172.942 72.7486 172.731 73.3181 172.441 73.8114Z" fill="#795829"/>
<path d="M175.45 62.807C175.363 63.3446 175.228 63.9609 174.859 64.3609C171.314 68.2035 167.728 72.007 164.159 75.8258C160.83 79.3865 157.515 82.9599 154.172 86.507C153.612 87.101 152.858 87.5212 152.339 88.1436C151.648 88.9741 151.098 89.9233 150.478 90.9478C149.621 91.4918 148.993 91.2943 149.074 90.2936C149.147 89.3907 149.315 88.3968 149.771 87.6432C150.897 85.7804 152.217 84.0347 153.451 82.2368C153.645 81.9549 153.991 81.6127 153.945 81.3577C153.659 79.7925 154.721 78.8223 155.512 77.796C157.157 75.6595 158.339 73.1524 160.808 71.6695C164.303 69.5702 166.725 65.934 170.772 64.5886C171.041 64.4992 171.391 64.3457 171.496 64.1234C172.324 62.3794 173.853 62.7255 175.45 62.807Z" fill="#6F552B"/>
<path d="M185.135 42.5511C185.619 44.7018 185.859 46.9489 186.662 48.9727C187.306 50.5975 188.63 51.9525 189.655 53.4252C189.915 53.7975 190.273 54.1259 190.439 54.5344C191.139 56.2574 190.975 56.4124 189.083 56.4326C188.125 56.4429 187.15 56.5918 186.217 56.8159C184.746 57.1684 183.317 57.6968 181.841 58.0181C181.434 58.1067 180.706 57.8592 180.504 57.5319C179.934 56.6074 179.493 55.5855 179.124 54.5574C178.446 52.6684 177.83 50.7553 177.241 48.8362C176.98 47.9865 176.728 47.1011 176.704 46.2255C176.69 45.7369 177.145 45.2308 177.429 44.7564C177.44 44.7383 178.072 44.9982 178.06 45.0769C177.988 45.5709 177.816 46.05 177.701 46.4511C177.935 46.8411 178.2 47.2816 178.553 47.8688C179.55 47.4106 180.061 46.8823 179.375 45.3372C178.669 43.7468 177.242 42.1752 178.324 40.1975C180.297 41.284 182.117 42.3624 183.998 43.322C184.195 43.4227 184.748 42.8248 185.135 42.5511Z" fill="#67522C"/>
<path d="M233.372 59.9397C231.973 61.489 230.715 63.2053 229.138 64.545C227.145 66.2394 227.829 68.4677 227.472 70.5025C227.353 71.1855 227.113 71.8472 226.929 72.5184C226.365 72.3613 225.791 72.2351 225.244 72.0333C224.983 71.9369 224.753 71.7181 224.545 71.5181C223.151 70.1805 221.722 68.8745 220.409 67.4606C220.058 67.0823 219.79 66.2504 219.964 65.8216C220.944 63.4039 221.78 60.8464 223.233 58.7259C224.552 56.7982 226.582 55.345 229.341 54.9663C230.379 56.2723 231.111 57.5759 231.962 58.7964C232.295 59.2738 232.894 59.5642 233.372 59.9397Z" fill="#67522C"/>
<path d="M214.501 44.6674C214.052 46.8266 213.675 49.0039 213.133 51.139C212.709 52.8096 212.068 54.4241 211.547 56.0713C211.109 57.4571 210.651 58.8405 210.305 60.2507C210.101 61.0851 209.875 61.5671 208.896 61.1795C206.867 60.3763 204.842 59.5507 202.768 58.8791C201.672 58.5241 201.686 58.0724 202.154 57.2114C203.251 55.1922 204.232 53.1741 204.909 50.9046C205.43 49.155 206.126 46.3741 209.465 46.7866C209.571 45.8653 209.672 44.9855 209.604 43.9422C208.836 42.6114 209.689 42.9217 210.196 43.0922C211.643 43.5791 213.067 44.1373 214.501 44.6674Z" fill="#67522C"/>
<path d="M162.209 48.2057C163.35 49.916 164.533 51.6004 165.622 53.3433C167.103 55.7149 168.551 58.1103 169.915 60.5504C170.133 60.9401 170.033 61.9422 169.755 62.1053C168.149 63.0465 166.439 63.8071 164.779 64.6571C163.815 65.1507 163.36 64.8486 162.966 63.8589C161.427 59.9883 159.795 56.155 158.212 52.3018C157.843 51.4039 157.528 50.483 157.295 49.517C158.126 49.4638 158.897 49.6248 159.565 49.4305C160.487 49.1624 161.332 48.6266 162.209 48.2057Z" fill="#67522C"/>
<path d="M247.841 82.5964C243.702 84.6383 239.562 86.6805 235.23 88.817C234.603 87.4812 234.044 86.244 233.443 85.0276C233.067 84.2649 232.601 83.5461 232.222 82.7844C231.83 81.9986 231.325 81.2316 232.699 80.7482C236.843 79.2918 240.959 77.7535 245.222 76.4064C246.186 78.5759 247.014 80.5862 247.841 82.5964Z" fill="#67522C"/>
<path d="M142.709 66.6546C143.08 66.6801 143.703 66.8482 143.781 66.7089C144.419 65.577 145.118 65.8223 145.923 66.4702C146.992 67.3316 148.131 68.1135 149.148 69.0319C150.358 70.1238 151.772 70.3975 153.308 70.3532C153.713 70.3415 154.145 70.1426 154.514 70.2348C155.292 70.4287 156.037 70.7585 156.796 71.0323C156.391 71.6894 156.063 72.4124 155.567 72.9897C154.546 74.1748 153.478 75.3277 152.341 76.3982C151.893 76.8199 151.036 77.3748 150.655 77.2075C147.702 75.9128 144.339 75.2904 142.123 72.6901C140.994 71.3656 140.16 69.7887 139.257 68.1656C140.45 67.555 141.58 67.105 142.709 66.6546Z" fill="#68532D"/>
<path d="M172.587 73.7979C172.731 73.3181 172.942 72.7486 173.325 72.3433C176.309 69.1904 179.343 66.0833 182.321 62.9252C182.87 62.3433 183.241 61.5929 183.721 60.8011C184.81 60.2379 185.838 59.6305 186.943 59.4103C187.622 59.2748 188.418 59.7326 189.335 60.0521C189.303 60.6823 189.212 61.2858 188.872 61.667C187.896 62.761 186.734 63.694 185.803 64.8209C184.448 66.461 183.232 68.2152 181.956 69.9206C180.113 70.533 178.26 71.1167 176.434 71.7777C175.961 71.9486 175.352 72.2734 175.194 72.6794C174.702 73.9376 173.712 73.7851 172.587 73.7979Z" fill="#825D2A"/>
<path d="M265.861 111.693C266.758 114.516 268.603 116.208 271.37 117.435C273.73 118.482 275.865 120.086 278.529 120.29C279.767 120.385 281.034 120.012 282.288 120.012C283.205 120.012 284.123 120.274 284.99 120.74C280.618 121.751 276.325 123.629 272.006 120.657C270.899 119.896 269.167 120.1 267.933 119.455C266.618 118.766 265.554 117.596 264.377 116.639C263.615 116.02 262.847 115.408 262.103 114.6C262.463 114.028 262.92 113.702 263.121 113.259C263.673 112.039 264.58 111.57 265.861 111.693Z" fill="#6B552E"/>
<path d="M219.893 71.2485C221.342 72.0468 222.427 73.0762 222.745 74.8397C222.845 75.3918 223.555 75.8329 224.035 76.5762C223.843 77.8226 223.602 78.8177 223.361 79.8127C223.081 79.3074 222.8 78.8017 222.511 78.2808C221.748 78.7847 221.156 79.1762 220.5 79.6102C219.7 78.1457 222.66 76.6996 220.45 75.657C219.95 76.3393 219.566 77.0489 219.01 77.5769C218.218 78.329 218.127 79.0386 218.699 80.0624C218.542 80.3269 218.49 80.4241 218.464 80.5354C218.447 80.6542 218.389 80.7468 218.119 80.9106C217.51 81.4372 217.072 81.8663 216.633 82.2953C216.112 81.7081 215.538 81.1588 215.082 80.5241C214.5 79.712 214.013 78.8312 213.41 77.7634C213.142 77.473 212.949 77.3985 212.755 77.3244C212.755 77.3244 212.776 77.3053 212.776 77.1801C213.37 75.9457 213.964 74.8361 214.676 73.7801C215.7 74.5829 216.257 73.8514 216.561 73.2319C217.033 72.268 217.598 72.2148 218.498 72.5141C218.742 72.5953 219.165 72.1351 219.532 71.8276C219.67 71.5709 219.781 71.4099 219.893 71.2485Z" fill="#ECB407"/>
<path d="M243.645 104.995C241.775 105.913 239.923 106.872 238.012 107.695C237.781 107.794 236.91 107.179 236.884 106.851C236.692 104.392 236.553 101.919 236.608 99.455C236.62 98.9323 237.446 98.0596 237.987 97.9827C240.084 97.6841 242.217 97.6373 244.338 97.5078C244.689 97.4862 245.044 97.5185 245.547 97.6819C245.462 98.5493 245.315 99.3061 244.973 99.9614C244.354 101.148 243.602 102.263 242.94 103.428C242.483 104.234 242.462 104.901 243.645 104.995Z" fill="#67522C"/>
<path d="M233.108 105.612C232.311 106.069 231.479 106.312 230.943 106.85C228.701 109.1 226.577 111.467 224.345 113.728C223.747 114.333 222.919 114.711 222.071 115.213C222.512 113.188 223.08 111.145 223.801 108.89C226.702 105.633 229.433 102.573 232.216 99.5592C232.535 99.2135 233.137 99.1305 233.608 98.9255C234.387 101.184 234.001 103.371 233.108 105.612Z" fill="#755B2B"/>
<path d="M200.39 70.8603C198.027 70.6458 195.664 70.4313 193.23 70.1227C195.344 67.7575 197.566 65.5203 199.67 63.1777C199.972 62.8419 199.71 61.9983 199.71 61.3894C201.155 61.8234 202.583 62.2575 204.089 61.499C204.249 61.4188 204.956 61.9922 205.078 62.3699C205.301 63.0607 205.276 63.832 205.267 64.783C203.582 66.9511 201.986 68.9057 200.39 70.8603Z" fill="#A36721"/>
<path d="M192.179 23.376C193.725 21.2816 194.531 18.9501 194.408 16.328C194.354 15.1637 195.149 14.2909 195.242 13.0167C195.515 9.27381 193.532 6.2375 192.96 2.81557C192.934 2.6587 193.013 2.48426 193.088 2.06238C193.474 2.26919 193.94 2.35883 194.029 2.59231C194.662 4.25856 195.174 5.97094 195.812 7.63509C196.328 8.98055 197.352 10.2457 197.469 11.6055C197.716 14.463 197.626 17.366 197.453 20.2369C197.359 21.7731 196.804 23.2813 196.186 24.8175C194.669 24.3472 193.424 23.8616 192.179 23.376Z" fill="#68532D"/>
<path d="M182.047 70.0248C183.232 68.2152 184.448 66.4609 185.803 64.8209C186.734 63.6939 187.896 62.7609 188.872 61.667C189.212 61.2858 189.303 60.6822 189.466 60.0801C191.142 60.1099 192.858 60.24 194.645 60.6109C193.494 62.3017 192.22 63.7123 191.068 65.2159C190.309 66.206 189.725 67.3304 189.062 68.3943C188.566 68.5053 187.888 68.4478 187.604 68.7553C186.055 70.434 184.218 70.7014 182.047 70.0248Z" fill="#8B6027"/>
<path d="M238.243 127.721C236.616 126.838 234.971 125.984 233.368 125.06C232.493 124.555 231.245 124.075 230.991 123.309C230.786 122.689 231.832 121.668 232.285 120.804C232.442 120.503 232.475 120.139 232.58 119.808C233.164 117.973 234.324 117.686 235.793 118.938C237.628 120.5 239.511 122.004 241.322 123.675C240.262 125.119 239.253 126.419 238.243 127.721Z" fill="#68532D"/>
<path d="M139.91 56.7496C139.988 55.528 140.274 54.2734 140.089 53.0929C139.863 51.6425 139.338 50.2131 138.76 48.8532C138.378 47.956 137.606 47.234 137.126 46.3684C136.125 44.5606 134.241 44.1173 132.599 43.2929C131.641 42.8124 130.675 42.3485 129.818 41.6259C133.149 41.9478 136.403 42.4411 138.939 44.9234C139.97 45.9326 141.094 46.8677 141.998 47.9805C143.748 50.1347 144.163 52.6766 143.642 55.5482C142.315 56.0606 141.113 56.4049 139.91 56.7496Z" fill="#68532D"/>
<path d="M189.193 68.4173C189.725 67.3304 190.309 66.206 191.068 65.2159C192.22 63.7124 193.494 62.3017 194.73 60.7212C195.336 60.657 195.931 60.706 196.52 60.7932C197.502 60.9386 198.48 61.1088 199.584 61.329C199.71 61.9982 199.972 62.8418 199.67 63.1776C197.566 65.5202 195.344 67.7574 193.07 70.0996C191.762 69.5939 190.542 69.017 189.193 68.4173Z" fill="#966425"/>
<path d="M231.472 90.0503C231.614 90.5961 231.79 91.1358 231.892 91.6886C232.144 93.0553 232.364 94.4283 232.506 95.8702C232.142 95.6372 231.868 95.3326 231.539 94.9266C231.185 94.5791 230.885 94.3333 230.751 94.2241C229.791 95.3067 228.916 96.2932 228.076 97.2404C228.516 97.6291 228.929 97.994 229.05 98.1007C228.753 98.9276 228.55 99.495 228.246 100.129C227.133 100.612 226.119 101.029 225.105 101.446C224.523 100.305 223.854 99.1975 223.397 98.0078C223.197 97.489 223.433 96.8028 223.678 96.0588C224.562 95.033 225.239 94.1411 225.917 93.2493C226.249 93.1156 226.661 93.0613 226.893 92.828C227.171 92.5489 227.295 92.1166 227.585 91.561C228.113 92.2223 228.457 92.6521 229.125 93.4879C229.391 92.2127 229.586 91.2769 229.861 90.1393C230.003 89.8503 230.064 89.7613 230.122 89.6709C230.122 89.6709 230.109 89.7057 230.213 89.7099C230.702 89.8262 231.087 89.9383 231.472 90.0503Z" fill="#98742D"/>
<path d="M218.723 18.7875C219.166 18.0096 219.608 17.2313 220.053 16.454C220.168 16.2512 220.396 16.0508 220.394 15.8513C220.358 12.7935 222.776 10.671 223.402 7.82289C223.842 5.82331 224.944 3.9692 225.756 2.05269C226.047 1.36513 226.356 0.684993 226.657 0.00146484C226.826 0.0238209 226.995 0.0461757 227.164 0.0685317C227.201 0.706469 227.355 1.36409 227.252 1.97876C226.905 4.05789 226.751 6.16094 225.573 8.06668C224.987 9.01313 225.01 10.3296 224.721 11.4693C224.557 12.1139 224.324 12.7414 224.112 13.3733C223.483 15.2532 222.849 17.1314 221.977 19.0807C220.733 19.03 219.728 18.9088 218.723 18.7875Z" fill="#6B552E"/>
<path d="M152.554 38.7174C151.901 37.2695 151.237 35.8266 150.597 34.3725C149.025 30.8 147.424 27.2392 145.916 23.6397C145.186 21.8979 144.638 20.0798 144.007 18.2962C144.206 18.2114 144.405 18.1265 144.604 18.0416C148.219 24.3439 151.833 30.6461 155.33 37.094C154.327 37.7323 153.44 38.2248 152.554 38.7174Z" fill="#6B552E"/>
<path d="M261.987 70.2461C264.776 69.4217 267.582 68.6479 270.35 67.7554C272.278 67.133 274.149 66.3313 276.06 65.6522C276.357 65.5465 276.734 65.6671 277.596 65.7079C276.95 66.5915 276.64 67.3891 276.061 67.7337C274.66 68.5678 273.129 69.182 271.659 69.9036C271.142 70.1575 270.661 70.4866 270.146 70.7454C268.356 71.6447 266.559 72.5284 264.572 73.3469C263.582 72.2657 262.784 71.2561 261.987 70.2461Z" fill="#6B552E"/>
<path d="M225.116 101.572C226.119 101.029 227.133 100.612 228.382 100.103C230.322 99.7138 231.235 98.4152 231.062 96.8379C230.998 96.2613 231.403 95.6333 231.594 95.0283C231.868 95.3326 232.142 95.6372 232.492 96.0109C232.925 96.9429 233.283 97.8056 233.625 98.7968C233.137 99.1304 232.535 99.2134 232.216 99.5592C229.434 102.573 226.702 105.633 223.876 108.762C222.552 106.147 223.567 103.872 225.116 101.572Z" fill="#84662D"/>
<path d="M252.454 132.534C255.266 134.742 258.075 136.952 260.891 139.155C263.017 140.82 265.165 142.458 267.264 144.156C267.521 144.363 267.536 144.869 267.337 145.424C264.199 143.416 261.078 141.38 257.915 139.413C256.405 138.474 254.801 137.688 253.265 136.79C252.665 136.44 252.132 135.974 251.492 135.385C251.761 134.317 252.108 133.426 252.454 132.534Z" fill="#6B552E"/>
<path d="M209.578 69.1114C209.957 68.6507 210.335 68.1901 210.964 67.7376C211.639 68.0858 212.063 68.4255 212.609 68.7057C212.749 68.4514 212.767 68.2571 212.768 68.0656C212.752 68.0685 212.73 68.0933 212.73 68.0933C212.904 68.0844 213.175 68.1443 213.237 68.0564C214.258 66.6146 214.352 66.6106 215.585 68.0865C214.775 69.045 213.964 70.0053 213.101 71.206C212.433 72.206 211.718 72.9085 211.233 73.745C210.883 74.3486 210.84 75.1309 210.66 75.8333C209.356 74.5727 207.157 74.9621 206.14 73.1323C207.343 71.661 208.46 70.3862 209.578 69.1114Z" fill="#C88D1C"/>
<path d="M185.209 42.4245C184.748 42.8248 184.195 43.4227 183.998 43.322C182.117 42.3624 180.297 41.284 178.426 40.1152C178.543 38.8741 178.693 37.7585 179.089 36.6042C181.387 37.495 183.44 38.4245 185.492 39.3535C185.422 40.3351 185.353 41.3167 185.209 42.4245Z" fill="#795829"/>
<path d="M250.931 54.9295C254.412 53.5068 257.156 51.3436 258.547 47.6777C258.764 47.1057 259.596 46.7674 260.343 46.5305C259.219 50.3837 258.318 54.2546 254.62 56.5092C253.905 56.9454 253.329 57.6103 252.603 58.0802C251.988 56.9702 251.46 55.9497 250.931 54.9295Z" fill="#6B552E"/>
<path d="M181.597 33.6369C182.811 32.4963 184.025 31.3556 185.476 30.1898C187.316 30.8841 188.919 31.6035 190.521 32.3229C189.531 33.7634 188.272 34.8836 186.474 35.6699C184.726 35.0502 183.162 34.3436 181.597 33.6369Z" fill="#A46923"/>
<path d="M214.569 44.5546C213.067 44.1372 211.644 43.5791 210.196 43.0922C209.689 42.9216 208.836 42.6114 209.498 43.8557C209.218 43.7472 208.873 43.5628 208.529 43.378C208.956 42.9805 209.383 42.583 209.866 42.1326C209.036 40.4025 209.923 38.2709 211.668 38.2727C212.475 38.2738 213.269 38.2731 213.049 39.4883C213.033 39.5727 213.513 39.7468 213.941 39.8174C214.719 39.9702 215.318 40.1844 215.916 40.3989C215.49 41.7465 215.063 43.0943 214.569 44.5546Z" fill="#795829"/>
<path d="M256.28 107.836C254.739 107.113 253.198 106.39 251.601 105.564C252.56 103.736 253.573 102.011 254.587 100.286C255.629 100.823 256.713 101.297 257.697 101.925C258.164 102.223 258.444 102.816 258.71 103.443C257.835 105.019 257.058 106.428 256.28 107.836Z" fill="#A46923"/>
<path d="M245.342 59.5266C243.427 59.4592 241.513 59.3915 239.465 59.1049C238.629 57.3567 237.925 55.8269 237.222 54.2975C239.477 54.6404 241.732 54.9833 244.138 55.4847C244.64 56.9376 244.991 58.2322 245.342 59.5266Z" fill="#A46923"/>
<path d="M200.531 70.8809C201.986 68.9057 203.582 66.9511 205.281 64.933C206.146 64.8695 206.907 64.8695 207.668 64.8695C207.729 65.0025 207.789 65.1355 207.849 65.2688C207.274 65.6876 206.699 66.1064 206.111 66.5348C206.445 66.961 206.777 67.3851 207.092 68.0567C205.913 69.5138 204.751 70.7234 203.589 71.9326C202.616 71.589 201.644 71.245 200.531 70.8809Z" fill="#B17120"/>
<path d="M233.485 59.8776C232.894 59.5642 232.294 59.2737 231.962 58.7964C231.111 57.5759 230.379 56.2723 229.477 54.9684C230.555 53.1964 231.796 52.8003 233.946 53.6783C234.69 55.6191 235.244 57.411 235.798 59.2028C235.065 59.4067 234.332 59.611 233.485 59.8776Z" fill="#795829"/>
<path d="M247.766 105.354C246.999 105.313 246.231 105.272 245.418 105.005C245.668 104.205 245.965 103.632 246.259 103.058C247.14 101.34 248.019 99.6216 248.899 97.9036C249.808 98.2702 250.716 98.6365 251.676 99.2575C251.515 100.167 251.372 100.856 251.075 101.47C250.391 102.881 249.632 104.255 248.903 105.644C248.737 105.656 248.571 105.668 248.226 105.605C247.961 105.459 247.868 105.4 247.766 105.354Z" fill="#825D2A"/>
<path d="M181.489 33.6938C183.162 34.3436 184.726 35.0502 186.412 35.7798C186.227 36.9096 185.918 38.0167 185.551 39.2387C183.44 38.4245 181.387 37.4951 179.209 36.5348C179.85 35.5862 180.615 34.6684 181.489 33.6938Z" fill="#8F6228"/>
<path d="M221.93 91.8642C221.707 90.7855 221.484 89.7067 221.271 88.3514C222.085 87.1968 222.888 86.3181 223.691 85.4393C224.678 87.223 224.922 85.2443 225.48 85.0323C225.774 84.9209 225.909 84.3897 226.115 84.0482C226.619 84.5323 227.197 84.9652 227.582 85.5308C227.698 85.7021 227.326 86.2734 227.093 86.6011C226.694 87.1613 226.228 87.6741 225.593 88.3401C224.241 89.6039 223.085 90.734 221.93 91.8642Z" fill="#BB9025"/>
<path d="M210.768 75.8848C210.84 75.1309 210.883 74.3486 211.233 73.7451C211.718 72.9085 212.433 72.2061 213.109 71.339C214.216 72.7192 214.71 72.6965 215.508 71.1273C215.766 70.621 216.054 70.1284 216.28 69.6082C216.773 68.4702 217.392 68.6036 218.138 69.361C218.695 69.9256 219.29 70.4522 219.88 71.122C219.781 71.41 219.67 71.571 219.414 71.8202C218.882 71.5671 218.496 71.2256 218.077 70.8546C216.855 71.8518 215.706 72.789 214.558 73.7266C213.964 74.8362 213.37 75.9458 212.765 77.1901C212.129 76.8621 211.503 76.399 210.768 75.8848Z" fill="#D9A014"/>
<path d="M248.754 97.8855C248.019 99.6217 247.14 101.34 246.259 103.058C245.965 103.632 245.668 104.205 245.344 104.908C244.852 105.017 244.388 104.997 243.784 104.986C242.462 104.901 242.483 104.234 242.94 103.428C243.602 102.263 244.354 101.148 244.973 99.9614C245.315 99.3061 245.463 98.5493 245.701 97.704C246.673 97.6689 247.641 97.7678 248.754 97.8855Z" fill="#6F552B"/>
<path d="M213.807 32.2065C213.962 30.8575 214.119 29.5085 214.519 28.0856C216.118 28.6256 217.473 29.2395 218.828 29.8534C218.438 31.3336 218.047 32.8138 217.448 34.2799C216.095 33.5794 214.951 32.8929 213.807 32.2065Z" fill="#A46923"/>
<path d="M218.939 29.7932C217.473 29.2395 216.118 28.6256 214.623 27.9992C215.363 26.5969 216.243 25.207 217.304 23.8654C218.611 24.337 219.734 24.7603 220.858 25.1837C220.256 26.7001 219.653 28.2165 218.939 29.7932Z" fill="#966425"/>
<path d="M220.875 25.0531C219.734 24.7603 218.611 24.3369 217.413 23.8102C217.736 22.1282 218.131 20.5496 218.625 18.8793C219.728 18.9087 220.733 19.0299 221.875 19.1537C221.882 19.5859 221.741 20.0131 221.62 20.4457C221.337 21.4519 221.016 22.451 220.808 23.4729C220.715 23.9315 220.857 24.4379 220.875 25.0531Z" fill="#825D2A"/>
<path d="M246.34 132.655C244.99 131.898 243.64 131.141 242.183 130.175C242.245 129.455 242.364 128.921 242.594 128.439C243.013 127.563 243.499 126.72 243.957 125.862C244.424 126.287 244.973 126.651 245.339 127.149C246.063 128.132 246.686 129.189 247.42 130.456C247.106 131.349 246.723 132.002 246.34 132.655Z" fill="#A46923"/>
<path d="M243.908 125.753C243.499 126.72 243.013 127.563 242.594 128.439C242.364 128.921 242.245 129.455 242.113 130.076C241.945 130.132 241.741 130.078 241.425 129.862C241.224 129.621 241.135 129.54 241.046 129.46C240.157 128.945 239.269 128.43 238.312 127.818C239.253 126.42 240.262 125.119 241.388 123.78C242.289 124.376 243.074 125.01 243.908 125.753Z" fill="#825D2A"/>
<path d="M247.956 82.572C247.014 80.5862 246.186 78.5759 245.357 76.4308C246.097 76.0436 246.839 75.7911 247.777 75.6603C248.765 77.383 249.557 78.9837 250.349 80.5847C249.589 81.239 248.83 81.8933 247.956 82.572Z" fill="#795829"/>
<path d="M235.941 59.2171C235.244 57.411 234.69 55.6192 234.087 53.71C235.019 53.7848 236 53.9763 237.102 54.2327C237.925 55.827 238.629 57.3568 239.336 59.0273C238.254 59.189 237.168 59.2103 235.941 59.2171Z" fill="#8F6228"/>
<path d="M223.408 79.9287C223.602 78.8177 223.843 77.8227 224.097 76.6862C225.09 77.9596 226.114 79.3475 227.013 80.8124C227.2 81.1181 227.078 81.8457 226.824 82.1397C226.384 82.6482 225.728 82.9698 225.441 83.1727C224.35 82.8436 223.511 82.5904 222.418 82.2613C222.281 81.9964 221.971 81.4003 221.586 80.661C222.273 80.544 222.91 80.4365 223.546 80.3216C223.56 80.3191 223.575 80.2252 223.56 80.1851C223.54 80.1323 223.491 80.0908 223.408 79.9287Z" fill="#D2A221"/>
<path d="M249.057 105.658C249.632 104.255 250.391 102.881 251.075 101.47C251.373 100.856 251.515 100.167 251.735 99.371C252.642 99.51 253.541 99.7905 254.514 100.178C253.573 102.011 252.56 103.736 251.465 105.545C250.66 105.644 249.936 105.658 249.057 105.658Z" fill="#966425"/>
<path d="M250.481 80.5528C249.557 78.9837 248.765 77.383 247.912 75.6819C248.594 75.2408 249.338 74.8996 250.242 74.5631C250.401 74.5681 250.529 74.5773 250.529 74.5773L250.642 74.5074C250.805 74.4947 250.967 74.4819 251.251 74.6202C251.624 75.2695 251.875 75.7677 252.126 76.2663C252.05 76.7071 251.974 77.1475 252.058 77.7411C252.648 78.4191 253.078 78.9443 253.507 79.4695C252.543 79.8198 251.578 80.1702 250.481 80.5528Z" fill="#8F6228"/>
<path d="M143.7 59.9482C143.92 61.1426 144.139 62.3369 144.306 63.6972C143.729 63.8486 143.204 63.8337 142.578 63.7529C141.258 63.8493 140.041 64.0117 138.823 64.1745C139.035 63.2107 139.246 62.2468 139.576 61.1149C141.03 60.6138 142.365 60.2809 143.7 59.9482Z" fill="#A46923"/>
<path d="M221.957 92.0035C223.085 90.734 224.241 89.6039 225.483 88.3947C225.785 88.7681 226 89.2209 226.18 89.5993C226.08 90.7159 225.98 91.8291 225.898 93.0957C225.239 94.1411 224.562 95.033 223.794 95.9982C222.809 94.9028 222.156 93.6287 221.957 92.0035Z" fill="#AC8429"/>
<path d="M250.807 54.9493C251.46 55.9497 251.988 56.9703 252.48 58.1061C251.302 58.8699 250.163 59.5178 248.943 59.9284C248.515 58.488 248.168 57.2848 247.82 56.0816C248.775 55.7107 249.729 55.3401 250.807 54.9493Z" fill="#825D2A"/>
<path d="M256.338 107.941C257.058 106.428 257.835 105.019 258.729 103.573C259.513 104.357 260.18 105.178 260.848 106C260.69 105.966 260.533 105.932 260.376 105.898C260.088 106.916 259.8 107.933 259.409 109.131C259.123 109.776 258.941 110.241 258.758 110.706C257.971 109.819 257.183 108.933 256.338 107.941Z" fill="#966425"/>
<path d="M187.955 27.2659C188.593 26.5929 189.23 25.9198 190.009 25.3042C191.456 26.1343 192.76 26.9069 194.065 27.6794C193.438 28.3863 192.811 29.0932 191.92 29.7902C190.227 29.2302 188.418 29.2428 187.955 27.2659Z" fill="#8B6027"/>
<path d="M194.163 27.6103C192.76 26.9069 191.456 26.1343 190.112 25.2407C190.705 24.5778 191.338 24.0359 192.074 23.4351C193.424 23.8617 194.669 24.3472 196.056 24.8414C195.552 25.747 194.907 26.6441 194.163 27.6103Z" fill="#795829"/>
<path d="M215.938 40.272C215.318 40.1844 214.719 39.9702 214.004 39.7259C214.067 37.9128 213.259 37.1791 211.277 37.6908C211.259 37.51 211.24 37.3291 211.222 37.1482C211.595 36.8089 211.926 36.3947 212.353 36.1482C212.917 35.8227 213.557 35.628 214.284 35.3302C215.384 35.6951 216.366 36.1064 217.347 36.5181C216.884 37.727 216.422 38.9362 215.938 40.272Z" fill="#8F6228"/>
<path d="M247.697 56.0134C248.168 57.2847 248.515 58.4879 248.868 59.8287C247.792 59.8422 246.71 59.7177 245.485 59.5599C244.991 58.2322 244.64 56.9376 244.285 55.5067C245.378 55.562 246.475 55.7535 247.697 56.0134Z" fill="#8F6228"/>
<path d="M187.856 27.3304C188.418 29.2427 190.227 29.2302 191.792 29.7928C191.532 30.6046 191.137 31.4039 190.631 32.2631C188.919 31.6035 187.316 30.8841 185.581 30.1346C186.218 29.2014 186.987 28.2982 187.856 27.3304Z" fill="#966425"/>
<path d="M257.347 74.4454C257.083 73.2706 256.939 72.1926 258.604 71.9451C259.072 71.8756 259.495 71.5071 260.084 71.4039C260.694 72.7259 261.159 73.9199 261.624 75.1139C261.004 75.4603 260.385 75.8064 259.532 76.1947C258.647 75.6394 257.997 75.0426 257.347 74.4454Z" fill="#8B6027"/>
<path d="M155.738 46.8415C155.275 45.5121 154.812 44.1826 154.444 42.6897C155.057 42.1883 155.574 41.8496 156.092 41.511C156.838 41.9457 156.951 43.3879 158.447 42.678C159.524 42.1663 159.481 43.3699 159.578 44.2C158.199 45.144 156.35 45.0571 155.738 46.8415ZM156.698 43.3358C156.821 43.3663 156.943 43.3964 157.066 43.4269C156.993 43.3468 156.919 43.2667 156.698 43.3358Z" fill="#A46923"/>
<path d="M257.236 74.5C257.997 75.0426 258.647 75.6394 259.426 76.2528C257.624 77.3241 255.693 78.3794 253.634 79.4518C253.078 78.9443 252.648 78.4192 252.162 77.7982C252.281 77.5539 252.452 77.2837 252.632 77.2762C254.64 77.1965 255.967 76.0213 257.236 74.5Z" fill="#A46923"/>
<path d="M223.673 85.321C222.888 86.3181 222.085 87.1969 221.267 88.2061C220.391 87.1681 219.53 85.9993 218.661 84.7032C219.538 84.0369 220.424 83.4986 221.309 82.9603C222.285 83.3263 223.261 83.6926 224.115 84.0125C223.962 84.4078 223.808 84.8054 223.673 85.321Z" fill="#D2A221"/>
<path d="M261.754 75.1358C261.159 73.9199 260.694 72.7259 260.218 71.3989C260.725 70.9465 261.243 70.6266 261.874 70.2762C262.785 71.256 263.582 72.2656 264.444 73.3855C263.634 74.0497 262.758 74.6035 261.754 75.1358Z" fill="#795829"/>
<path d="M203.698 71.994C204.751 70.7234 205.913 69.5138 207.102 68.183C207.859 68.4223 208.589 68.783 209.448 69.1273C208.46 70.3862 207.343 71.661 206.123 72.9979C205.283 72.7252 204.544 72.3901 203.698 71.994Z" fill="#BB9025"/>
<path d="M155.796 46.9518C156.35 45.0571 158.199 45.1439 159.603 44.3351C160.19 44.9326 160.647 45.5578 160.987 46.3397C159.44 47.0429 157.719 47.1535 157.158 48.9932C156.723 48.3496 156.288 47.706 155.796 46.9518Z" fill="#8F6228"/>
<path d="M142.679 63.8191C143.204 63.8336 143.729 63.8485 144.344 63.8258C145.072 65.4666 142.973 65.323 142.707 66.5262C141.58 67.1049 140.45 67.5549 139.198 68.0585C138.976 67.2468 138.878 66.3819 138.913 65.4358C140.475 65.3574 141.925 65.4141 142.679 63.8191Z" fill="#825D2A"/>
<path d="M217.366 36.3695C216.366 36.1064 215.384 35.695 214.32 35.1991C214.361 33.518 213.147 34.5868 212.603 34.297C211.995 33.1829 212.775 32.7454 213.689 32.2611C214.951 32.8929 216.095 33.5793 217.335 34.3451C217.415 35.0233 217.4 35.6223 217.366 36.3695Z" fill="#966425"/>
<path d="M157.174 49.0684C157.719 47.1535 159.44 47.0429 161 46.4702C161.476 46.9528 161.821 47.461 162.188 48.0876C161.332 48.6266 160.487 49.1624 159.565 49.4305C158.897 49.6248 158.126 49.4638 157.316 49.3766C157.231 49.2918 157.191 49.1433 157.174 49.0684Z" fill="#795829"/>
<path d="M265.804 111.573C264.58 111.57 263.673 112.039 263.12 113.259C262.92 113.702 262.463 114.028 262.04 114.498C261.282 113.822 260.608 113.056 259.954 112.124C260.067 111.852 260.159 111.748 260.252 111.644C260.484 111.648 260.826 111.754 260.932 111.639C262.487 109.966 264.117 110.786 265.804 111.573Z" fill="#755B2B"/>
<path d="M212.487 68.7653C212.063 68.4256 211.639 68.0859 211.092 67.7323C210.725 67.5603 210.498 67.3585 210.233 67.2522C209.591 66.9954 208.652 66.961 208.36 66.5015C208.086 66.0692 208.488 65.2068 208.576 64.6355C209.834 65.0192 210.945 65.1259 211.745 65.6812C212.306 66.071 212.443 67.0731 212.75 67.9472C212.73 68.0933 212.752 68.0685 212.664 68.1043C212.546 68.3483 212.517 68.5568 212.487 68.7653Z" fill="#BB9025"/>
<path d="M252.381 132.44C252.108 133.425 251.761 134.317 251.382 135.333C250.839 135.228 250.328 134.998 249.638 134.683C249.372 134.527 249.278 134.467 249.179 134.418C249.179 134.418 249.026 134.398 248.957 134.243C249.358 133.024 249.828 131.961 250.298 130.897C250.968 131.38 251.638 131.863 252.381 132.44Z" fill="#825D2A"/>
<path d="M143.752 59.8298C142.365 60.2808 141.03 60.6138 139.566 60.9787C139.495 59.984 139.552 58.9578 139.735 57.9777C140.305 58.211 140.777 58.6014 141.187 58.544C142.044 58.4241 142.868 58.0684 143.706 57.8096C143.739 58.4436 143.771 59.0773 143.752 59.8298Z" fill="#8F6228"/>
<path d="M221.286 82.8766C220.424 83.4986 219.538 84.0369 218.551 84.6394C217.853 83.9844 217.256 83.266 216.646 82.4213C217.072 81.8664 217.51 81.4373 218.039 80.938C218.615 81.333 219.099 81.7983 219.814 82.3543C220.357 82.4997 220.67 82.5539 220.983 82.6078C221.109 82.621 221.201 82.6827 221.286 82.8766Z" fill="#D9A014"/>
<path d="M143.736 57.6818C142.868 58.0684 142.044 58.424 141.186 58.5439C140.777 58.6014 140.305 58.2109 139.844 57.8989C139.843 57.5173 139.857 57.2606 139.891 56.8765C141.113 56.4049 142.315 56.0606 143.648 55.6882C143.774 56.2918 143.77 56.9233 143.736 57.6818Z" fill="#795829"/>
<path d="M231.493 89.9077C231.088 89.9382 230.702 89.8262 230.196 89.7035C229.612 89.4606 229.131 89.2563 228.69 88.9875C228.327 88.7666 227.805 88.5123 227.738 88.1918C227.682 87.9269 228.148 87.4996 228.455 87.2233C228.861 86.857 229.337 86.5677 229.794 86.2368C231.145 87.0088 231.451 88.3269 231.493 89.9077Z" fill="#AC8429"/>
<path d="M250.193 130.839C249.828 131.961 249.358 133.024 248.884 134.219C248.076 133.855 247.274 133.359 246.405 132.759C246.723 132.002 247.106 131.349 247.496 130.557C247.934 130.366 248.364 130.312 248.795 130.259C248.826 130.078 248.857 129.896 248.889 129.715C249.289 130.071 249.689 130.426 250.193 130.839Z" fill="#8F6228"/>
<path d="M260.242 111.512C260.159 111.748 260.067 111.853 259.893 112.022C259.491 111.695 259.171 111.304 258.804 110.809C258.941 110.241 259.123 109.776 259.424 109.259C260.132 109.014 260.717 108.798 261.316 108.635C261.776 108.51 262.262 108.361 262.721 108.402C262.947 108.422 263.139 108.845 263.347 109.085C262.956 109.379 262.567 109.675 262.173 109.965C261.528 110.439 260.879 110.909 260.242 111.512Z" fill="#84662D"/>
<path d="M152.564 38.8348C153.44 38.2249 154.327 37.7323 155.348 37.2256C155.779 37.8926 156.075 38.5735 156.141 39.3408C155.015 39.6522 154.12 39.8774 153.224 40.1025C153.008 39.7192 152.791 39.3355 152.564 38.8348Z" fill="#825D2A"/>
<path d="M153.253 40.233C154.12 39.8773 155.015 39.6522 156.044 39.4075C156.508 39.8511 156.837 40.3139 157.259 40.9071C156.891 41.0444 156.56 41.1685 156.16 41.4018C155.574 41.8497 155.057 42.1883 154.421 42.555C153.963 41.8429 153.622 41.1032 153.253 40.233Z" fill="#8F6228"/>
<path d="M252.252 76.2574C251.875 75.7677 251.624 75.2695 251.372 74.6429C252.572 74.0074 253.763 73.5844 254.817 74.8617C253.933 75.3641 253.155 75.8063 252.252 76.2574Z" fill="#A46923"/>
<path d="M142.577 63.7528C141.925 65.4142 140.474 65.3574 138.936 65.3021C138.81 64.9808 138.796 64.7113 138.802 64.3081C140.041 64.0117 141.258 63.8493 142.577 63.7528Z" fill="#8F6228"/>
<path d="M220.92 82.4939C220.67 82.5539 220.357 82.4996 219.943 82.3787C220.181 82.3347 220.519 82.3574 220.92 82.4939Z" fill="#D2A221"/>
<path d="M212.796 77.4287C212.949 77.3986 213.142 77.473 213.403 77.6273C213.259 77.6493 213.048 77.5911 212.796 77.4287Z" fill="#D9A014"/>
<path d="M221.904 115.254C221.925 115.305 221.865 115.389 221.745 115.523C221.679 115.454 221.725 115.359 221.904 115.254Z" fill="#755B2B"/>
<path d="M249.221 134.496C249.278 134.467 249.372 134.527 249.518 134.656C249.472 134.668 249.369 134.622 249.221 134.496Z" fill="#8F6228"/>
<path d="M247.802 105.438C247.868 105.4 247.961 105.459 248.102 105.592C248.051 105.61 247.944 105.567 247.802 105.438Z" fill="#966425"/>
<path d="M218.556 80.5025C218.49 80.4241 218.542 80.327 218.68 80.1837C218.709 80.2394 218.679 80.3546 218.556 80.5025Z" fill="#D9A014"/>
<path d="M250.563 74.4947C250.642 74.5075 250.529 74.5774 250.529 74.5774C250.529 74.5774 250.401 74.5681 250.364 74.543C250.326 74.5181 250.483 74.4823 250.563 74.4947Z" fill="#A46923"/>
<path d="M241.084 129.546C241.135 129.54 241.224 129.621 241.369 129.772C241.324 129.772 241.223 129.702 241.084 129.546Z" fill="#A46923"/>
<path d="M230.039 89.7061C230.064 89.7614 230.004 89.8504 229.884 89.9951C229.871 89.949 229.913 89.8451 230.039 89.7061Z" fill="#AC8429"/>
<path d="M212.609 68.7057C212.517 68.5567 212.546 68.3482 212.68 68.1011C212.767 68.2571 212.749 68.4514 212.609 68.7057Z" fill="black"/>
<path d="M156.772 43.2614C156.919 43.2667 156.993 43.3468 157.066 43.427C156.943 43.3965 156.82 43.3663 156.772 43.2614Z" fill="black"/>
<path d="M189.76 118.795C190.984 115.422 192.208 112.049 193.661 108.597C194.511 108.635 195.133 108.752 195.772 109.007C195.171 111.117 194.553 113.088 193.893 115.197C196.855 115.197 199.586 115.197 202.357 115.197C201.786 113.367 201.254 111.664 200.779 109.84C201.899 109.417 202.961 109.113 204.024 108.81C205.304 112.056 206.585 115.302 207.756 118.666C206.512 119.048 205.378 119.312 204.245 119.576C203.244 116.208 200.394 117.612 198.239 117.268C197.278 117.115 196.282 117.19 195.315 117.06C193.931 116.874 192.885 117.162 192.264 118.754C191.258 118.813 190.509 118.804 189.76 118.795Z" fill="#5A441E"/>
<path d="M165.006 106.303C165.957 107.855 166.912 109.405 167.856 110.961C168.358 111.789 168.839 112.629 169.584 113.894C170.812 111.51 171.83 109.534 173.084 107.497C174.066 107.56 174.812 107.685 175.558 107.81C174.43 109.644 173.219 111.433 172.204 113.327C171.642 114.378 171.405 115.604 170.896 116.976C169.45 117.726 168.129 118.25 166.809 118.773C166.767 115.737 165.574 113.146 163.821 110.733C163.148 109.806 162.678 108.73 162.251 107.588C163.336 107.246 164.733 108.058 165.006 106.303Z" fill="#5A441E"/>
<path d="M168.088 136.23C171.115 136.275 174.051 136.23 175.709 139.312C177.418 142.488 176.804 147.115 173.038 148.859C169.557 150.47 165.439 149.747 163.746 145.614C162.317 142.127 163.699 138.043 168.088 136.23ZM167.23 138.142C166.736 138.716 166.15 139.234 165.765 139.874C164.708 141.627 164.995 144.87 166.375 146.513C167.53 147.889 169.071 148.664 170.867 148.244C173.263 147.683 174.598 146.108 174.858 143.569C175.083 141.371 173.328 137.983 171.189 137.507C170.046 137.254 168.719 137.829 167.23 138.142Z" fill="#35291A"/>
<path d="M117.154 124.468C117.386 125.311 117.523 126.196 117.869 126.989C118.774 129.059 120.594 129.338 122.556 129.162C124.507 128.988 126.132 128.353 126.439 126.07C126.459 125.921 126.648 125.795 127.016 125.591C128.04 125.666 128.807 125.81 129.573 125.953C129.214 127.722 129.288 129.271 131.794 129.586C131.724 129.783 131.655 129.981 131.585 130.178C130.949 130.283 130.317 130.452 129.678 130.481C126.945 130.605 124.207 130.812 121.477 130.745C119.15 130.688 116.818 130.376 114.521 129.986C114.063 129.908 113.549 129.012 113.417 128.414C113.207 127.467 113.296 126.453 113.43 125.32C114.786 124.938 115.97 124.703 117.154 124.468Z" fill="#302416"/>
<path d="M153.973 137.316C150.59 138.159 149.324 139.688 149.431 142.671C149.528 145.397 151.776 148.189 154.514 148.348C155.91 148.429 157.361 147.543 159.125 146.988C159.718 147.61 159.353 148.59 158.333 149.132C155.628 150.57 150.209 149.008 148.504 146.43C146.357 143.183 148.137 137.278 151.818 136.309C153.746 135.802 155.92 136.06 157.963 136.227C159.183 136.326 159.527 137.794 159.026 139.02C157.362 138.435 155.732 137.862 153.973 137.316Z" fill="#35291A"/>
<path d="M129.895 118.032C130.279 116.798 130.664 115.564 131.283 114.247C132.196 114.514 132.875 114.865 133.713 115.225C136.253 115.304 138.633 115.395 141.013 115.415C141.344 115.418 141.678 115.073 142.137 114.865C143.487 114.85 144.71 114.86 145.934 114.87C146.368 115.971 146.802 117.072 147.077 118.305C145.702 118.458 144.485 118.481 143.269 118.503C142.825 117.531 142.146 117.253 141.033 117.323C138.711 117.47 136.373 117.418 134.044 117.364C132.918 117.338 132.274 117.754 131.942 118.951C131.161 118.702 130.528 118.367 129.895 118.032Z" fill="#513D1B"/>
<path d="M181.136 147.323C182.525 143.669 183.849 140.131 185.172 136.592C185.383 136.595 185.594 136.598 185.806 136.601C187.55 140.743 189.295 144.885 191.077 149.115C190.039 149.392 188.854 149.699 188.449 147.807C188.316 147.184 187.982 146.604 187.73 146.008C187.328 145.061 186.916 144.214 185.603 144.291C184.32 144.367 183.346 144.676 183.025 146.088C182.809 147.04 182.508 147.974 182.188 149.12C181.648 149.12 180.882 149.12 179.732 149.12C180.31 148.393 180.69 147.915 181.136 147.323ZM185.823 140.496C185.505 140.502 184.943 140.427 184.909 140.529C184.64 141.328 184.472 142.161 184.254 143.063C185.077 143.063 185.719 143.063 186.588 143.063C186.311 142.144 186.099 141.438 185.823 140.496Z" fill="#35291A"/>
<path d="M149.396 123.753C150.958 126.181 152.414 128.709 155.35 129.983C152.319 130.811 149.402 130.185 147.03 130.104C146.325 127.655 145.75 125.66 145.34 123.532C146.801 123.517 148.098 123.635 149.396 123.753Z" fill="#382A18"/>
<path d="M171.022 123.399C171.026 124.343 170.983 125.29 171.044 126.231C171.151 127.888 172.366 129.158 173.985 129.433C174.359 129.497 174.717 129.663 175.182 129.815C173.765 130.804 165.291 130.727 164.162 129.744C166.069 128.631 167.171 127.037 167.227 124.595C168.584 124.078 169.803 123.739 171.022 123.399Z" fill="#382A18"/>
<path d="M115.036 104.273C115.391 107.15 115.774 110.024 116.079 112.906C116.138 113.456 115.894 114.038 115.636 114.748C114.103 114.882 112.507 115.269 112.291 113.138C112.044 111.237 111.778 109.339 111.562 107.435C111.494 106.83 111.563 106.21 111.71 105.464C113.096 105.534 114.357 105.783 115.036 104.273Z" fill="#5A441E"/>
<path d="M214.662 137.665C212.188 137.552 212.071 137.648 212.086 139.928C212.096 141.449 212.096 142.975 212.203 144.491C212.31 146.005 212.545 147.509 212.74 149.15C211.767 149.15 210.809 149.15 209.814 149.15C211.361 145.828 210.461 142.399 210.595 139.055C210.637 138.017 209.896 137.447 208.814 137.619C207.859 137.77 206.918 138.009 205.869 138.231C205.696 136.56 206.833 136.306 207.826 136.245C209.271 136.157 210.731 136.344 212.185 136.386C213.06 136.411 213.948 136.474 214.81 136.364C216.588 136.137 216.922 136.533 216.331 138.496C215.81 138.218 215.306 137.949 214.662 137.665Z" fill="#302416"/>
<path d="M201.73 137.745C201.244 137.857 200.69 138.002 200.36 137.792C199.287 137.107 198.353 137.073 197.603 138.165C196.805 139.327 197.59 140.011 198.377 140.833C199.599 142.11 200.815 143.461 201.699 144.976C202.52 146.381 201.672 147.735 200.646 148.776C199.843 149.59 196.683 149.9 195.964 149.158C195.531 148.711 195.579 147.796 195.408 147.08C196.492 147.593 197.262 148.214 198.06 148.253C198.712 148.285 199.71 147.774 199.981 147.222C200.259 146.655 200.081 145.572 199.681 145.022C198.86 143.891 197.736 142.985 196.774 141.952C195.464 140.543 195.441 138.611 196.672 137.085C197.298 136.31 200.275 135.701 201.168 136.294C201.509 136.521 201.574 137.162 201.73 137.745Z" fill="#35291A"/>
<path d="M84.2258 105.327C84.2375 103.932 84.2071 102.536 84.2743 101.144C84.331 99.9671 84.4552 98.788 84.6415 97.6249C84.7233 97.1132 85.0323 96.6383 85.2384 96.1465C85.6731 96.4571 86.2892 96.672 86.5126 97.0947C87.7035 99.3511 88.7965 101.66 89.895 104.207C88.9182 104.894 87.9698 105.323 87.0213 105.753C86.8843 105.651 86.7469 105.55 86.3791 105.39C85.5074 105.33 84.8666 105.328 84.2258 105.327Z" fill="#4C391B"/>
<path d="M115.06 104.118C114.357 105.783 113.096 105.534 111.72 105.329C111.391 105.31 111.195 105.291 110.763 105.299C110.014 105.313 109.498 105.303 108.983 105.292C110.004 103.048 111.035 100.808 112.038 98.556C112.272 98.0294 112.341 97.4198 112.622 96.9251C112.853 96.5173 113.283 96.223 113.625 95.8787C113.937 96.2663 114.478 96.6287 114.524 97.0457C114.777 99.3439 114.91 101.656 115.06 104.118Z" fill="#4C391B"/>
<path d="M102.642 123.027C101.668 125.158 100.721 127.304 99.6559 129.389C99.5914 129.516 98.3197 129.353 98.0783 129.002C97.1585 127.664 96.431 126.194 95.5908 124.544C95.4411 124.126 95.332 123.938 95.223 123.749C95.223 123.749 95.2141 123.611 95.2389 123.4C95.9813 121.63 97.3999 122.646 98.4529 122.318C98.4529 122.318 98.4405 122.336 98.4808 122.4C98.5913 122.555 98.6759 122.632 98.7747 122.692C99.0724 123.181 99.3698 123.67 99.8031 124.381C100.232 123.508 100.548 122.865 101.015 122.106C101.658 122.336 102.15 122.681 102.642 123.027Z" fill="#382A18"/>
<path d="M210.113 124.077C211.536 126.365 212.885 128.722 215.544 130.232C214.985 130.325 214.428 130.484 213.866 130.5C212.291 130.547 210.711 130.6 209.14 130.524C208.116 130.474 206.992 130.47 207.314 128.746C207.458 127.969 206.951 127.07 206.742 125.968C206.587 124.697 206.795 124.127 208.041 124.316C208.705 124.416 209.421 124.168 210.113 124.077Z" fill="#3E2E19"/>
<path d="M159.275 102.903C159.058 102.625 158.842 102.347 158.564 101.88C158.415 101.602 158.328 101.514 158.241 101.425C158.241 101.425 158.258 101.425 158.202 101.361C158.071 101.208 157.984 101.134 157.885 101.075C157.885 101.075 157.89 101.082 157.868 100.966C157.595 100.571 157.344 100.293 157.092 100.015C155.638 98.9425 154.185 97.8705 152.285 96.4695C155.661 96.4695 158.614 96.4695 161.268 96.4695C161.419 97.9361 161.547 99.1808 161.788 100.614C161.989 100.888 162.078 100.972 162.167 101.057C162.167 101.057 162.148 101.063 162.199 101.122C162.317 101.27 162.396 101.345 162.488 101.408C162.502 101.563 162.517 101.717 162.386 101.994C161.252 102.379 160.264 102.641 159.275 102.903Z" fill="#40301A"/>
<path d="M87.0542 105.883C87.9697 105.323 88.9182 104.894 89.9035 104.334C91.0906 106.727 92.2405 109.249 93.3685 111.994C92.4334 112.653 91.5204 113.09 90.607 113.528C89.4337 111.023 88.2604 108.518 87.0542 105.883Z" fill="#5A441E"/>
<path d="M196.132 102.072C196.646 100.552 197.11 99.0113 197.709 97.5259C197.874 97.117 198.542 96.5457 198.808 96.6251C199.266 96.7627 199.745 97.2861 199.943 97.7613C200.704 99.589 201.358 101.461 201.978 103.489C200.801 103.858 199.698 104.055 198.552 104.16C198.199 103.887 197.889 103.706 197.501 103.574C197.351 103.724 197.279 103.823 197.223 103.914C197.238 103.905 197.261 103.933 197.128 103.926C196.485 103.804 195.975 103.688 195.465 103.573C195.455 103.51 195.445 103.448 195.503 103.229C195.636 102.959 195.7 102.845 195.764 102.731C195.764 102.731 195.771 102.601 195.851 102.481C196.013 102.276 196.08 102.179 196.132 102.072Z" fill="#3E2E19"/>
<path d="M141.249 102.476C141.27 102.62 141.29 102.764 141.213 103.09C140.105 103.483 139.095 103.693 138.036 103.818C137.798 103.555 137.609 103.377 137.343 103.255C137.184 103.408 137.102 103.505 137.006 103.701C136.887 103.963 136.781 104.126 136.571 104.211C135.959 104.06 135.451 103.985 134.942 103.91C135.909 101.167 136.875 98.4238 137.841 95.6805C138.093 95.7057 138.345 95.7312 138.597 95.7564C139.354 97.777 140.111 99.7976 140.936 102.022C141.072 102.323 141.153 102.406 141.249 102.476Z" fill="#473519"/>
<path d="M190.434 124.809C190.349 125.209 190.316 125.63 190.169 126.006C189.54 127.61 189.683 128.871 191.57 129.437C191.799 129.506 192.017 129.612 192.24 129.702C192.151 129.881 192.062 130.06 191.972 130.24C188.682 130.24 185.392 130.24 181.994 130.24C182.138 129.866 182.17 129.672 182.221 129.667C185.304 129.363 186.833 127.298 188.082 124.576C189 124.583 189.717 124.696 190.434 124.809Z" fill="#382A18"/>
<path d="M145.912 114.736C144.71 114.86 143.487 114.85 142.065 114.755C141.076 112.499 140.285 110.328 139.652 108.155C140.895 108.016 141.981 107.878 143.066 107.74C143.657 108.978 144.294 110.197 144.821 111.461C145.246 112.479 145.539 113.553 145.912 114.736Z" fill="#5A441E"/>
<path d="M108.879 105.357C109.498 105.303 110.014 105.313 110.683 105.324C109.439 108.672 108.04 112.019 106.442 115.468C105.523 115.463 104.804 115.355 104.084 115.247C105.037 113.21 105.981 111.167 106.946 109.135C107.539 107.889 108.164 106.66 108.879 105.357Z" fill="#5A441E"/>
<path d="M84.6637 125.283C83.3439 128.371 85.9514 128.967 87.7141 130.316C84.8829 130.316 82.0516 130.316 79.2261 130.316C80.0634 128.748 80.8663 127.245 81.8116 125.536C82.8351 124.047 83.7415 124.201 84.6637 125.283Z" fill="#35291A"/>
<path d="M171.028 123.242C169.803 123.739 168.584 124.078 167.224 124.448C166.98 123.519 166.841 122.562 166.785 121.599C166.736 120.754 166.779 119.904 166.795 118.915C168.129 118.25 169.45 117.725 170.865 117.114C170.984 119.045 171.01 121.064 171.028 123.242Z" fill="#473519"/>
<path d="M177.35 99.5234C177.171 98.8581 177.15 98.0812 176.776 97.5535C176.208 96.7499 176.445 96.2294 177.22 96.2251C179.43 96.2131 181.642 96.3744 183.85 96.5038C184.144 96.5212 184.425 96.7499 185.268 97.1354C182.187 97.9829 180.143 99.4517 178.77 102.05C177.751 102.112 176.976 102.088 176.2 102.064C176.2 102.064 176.251 101.927 176.348 101.792C176.512 101.54 176.579 101.424 176.645 101.308C176.723 100.945 176.801 100.582 177.014 100.051C177.216 99.7638 177.283 99.6436 177.35 99.5234Z" fill="#3E2E19"/>
<path d="M210.055 123.955C209.421 124.168 208.705 124.416 208.041 124.316C206.795 124.127 206.587 124.697 206.742 125.834C205.91 123.92 205.08 121.884 204.247 119.712C205.378 119.312 206.512 119.048 207.82 118.784C208.661 120.468 209.329 122.151 210.055 123.955Z" fill="#4C391B"/>
<path d="M224.284 136.278C227.543 137.465 226.964 141.837 224.861 142.921C223.322 143.715 221.399 143.478 220.159 142.206C219.367 141.393 219.234 138.805 219.926 137.692C220.875 136.165 222.362 135.652 224.284 136.278ZM220.927 138.974C220.945 140.244 220.645 141.684 222.185 142.321C223.324 142.792 225.157 141.752 225.631 140.497C226.036 139.425 225.055 137.575 223.742 137.127C222.301 136.636 221.382 137.259 220.927 138.974Z" fill="#1E1915"/>
<path d="M84.177 105.455C84.8666 105.328 85.5074 105.33 86.3086 105.34C86.3118 107.831 86.1546 110.314 85.8317 112.955C84.7565 113.302 83.43 112.561 83.1843 114.23C83.2037 112.588 83.117 110.934 83.2767 109.305C83.4002 108.049 83.8328 106.822 84.177 105.455Z" fill="#5A441E"/>
<path d="M98.4256 122.192C97.4 122.646 95.9813 121.63 95.2407 123.331C94.3928 121.903 93.5672 120.333 92.7546 118.497C93.2443 117.89 93.6829 117.367 94.2087 117.255C94.8612 117.116 95.5859 117.317 96.2791 117.372C96.9857 118.937 97.692 120.502 98.4256 122.192Z" fill="#473519"/>
<path d="M112.268 113.274C112.507 115.269 114.103 114.882 115.642 114.891C116.164 116.819 116.526 118.746 116.763 120.728C115.42 120.589 114.201 120.395 112.982 120.202C112.81 118.977 112.638 117.752 112.595 116.335C112.637 115.85 112.551 115.557 112.465 115.263C112.392 114.646 112.318 114.029 112.268 113.274Z" fill="#4C391B"/>
<path d="M159.296 103.025C160.264 102.641 161.252 102.379 162.403 102.11C163.364 103.422 164.163 104.742 164.984 106.183C164.733 108.058 163.336 107.246 162.224 107.459C161.976 107.429 161.904 107.375 161.767 107.157C161.601 106.925 161.514 106.836 161.428 106.745C161.428 106.745 161.444 106.748 161.39 106.677C161.263 106.512 161.175 106.434 161.072 106.375C160.487 105.298 159.902 104.222 159.296 103.025Z" fill="#4C391B"/>
<path d="M149.386 123.621C148.098 123.635 146.801 123.517 145.347 123.396C144.744 122.201 144.299 121.01 143.743 119.619C143.543 119.325 143.454 119.23 143.365 119.135C143.35 118.994 143.335 118.852 143.294 118.606C144.485 118.481 145.702 118.458 147.079 118.434C147.951 120.118 148.664 121.804 149.386 123.621Z" fill="#473519"/>
<path d="M96.2883 117.24C95.5859 117.317 94.8611 117.116 94.2086 117.255C93.6829 117.367 93.2443 117.89 92.7521 118.367C92.0356 116.933 91.3346 115.362 90.6205 113.66C91.5204 113.09 92.4335 112.653 93.4273 112.109C94.4377 113.704 95.3674 115.406 96.2883 117.24Z" fill="#513D1B"/>
<path d="M198.595 104.252C199.698 104.055 200.801 103.858 202.025 103.606C202.752 105.217 203.358 106.882 203.994 108.678C202.961 109.114 201.899 109.417 200.687 109.75C199.891 107.937 199.243 106.094 198.595 104.252Z" fill="#4C391B"/>
<path d="M129.806 118.123C130.528 118.367 131.161 118.702 131.913 119.084C131.287 121.367 130.543 123.603 129.705 125.896C128.845 125.809 128.078 125.665 127.153 125.516C127.902 123.078 128.81 120.646 129.806 118.123Z" fill="#40301A"/>
<path d="M112.96 120.317C114.201 120.395 115.42 120.589 116.75 120.863C116.97 122.016 117.079 123.088 117.189 124.313C116.008 124.702 114.824 124.937 113.486 125.169C113.316 124.004 113.301 122.843 113.237 121.434C113.095 121.091 113.002 120.995 112.91 120.899C112.919 120.744 112.928 120.588 112.96 120.317Z" fill="#3E2E19"/>
<path d="M104.031 115.361C104.804 115.355 105.523 115.463 106.377 115.578C105.669 117.433 104.858 119.296 103.97 121.122C103.671 121.737 103.178 122.257 102.708 122.923C102.15 122.681 101.658 122.336 101.041 121.985C101.937 119.811 102.957 117.642 104.031 115.361Z" fill="#473519"/>
<path d="M143.058 107.604C141.981 107.878 140.896 108.016 139.638 108.094C139.466 108.035 139.456 107.91 139.448 107.798C139.341 107.489 139.243 107.293 139.085 106.982C138.712 105.879 138.398 104.891 138.085 103.904C139.095 103.693 140.105 103.483 141.235 103.197C141.919 104.57 142.484 106.018 143.058 107.604Z" fill="#513D1B"/>
<path d="M84.7466 125.153C83.7415 124.201 82.8352 124.047 81.8757 125.424C82.0308 123.494 82.2641 121.47 82.6266 119.24C83.6006 119.182 84.4453 119.329 85.2901 119.477C85.1364 121.325 84.9828 123.174 84.7466 125.153Z" fill="#40301A"/>
<path d="M190.51 124.703C189.717 124.696 189 124.583 188.144 124.467C188.458 122.9 188.912 121.336 189.462 119.572C189.62 119.25 189.682 119.128 189.744 119.007C189.744 119.007 189.737 118.9 189.748 118.847C190.509 118.804 191.258 118.813 192.169 118.836C191.749 120.765 191.168 122.681 190.51 124.703Z" fill="#473519"/>
<path d="M85.3049 119.323C84.4453 119.329 83.6006 119.182 82.6355 119.082C82.7375 117.588 82.9598 116.046 83.1832 114.367C83.43 112.561 84.7565 113.303 85.8148 113.113C85.7486 115.131 85.534 117.15 85.3049 119.323Z" fill="#513D1B"/>
<path d="M133.553 115.215C132.875 114.865 132.196 114.514 131.371 114.155C131.879 112.186 132.534 110.225 133.436 108.211C134.301 108.277 134.919 108.397 135.542 108.649C134.883 110.926 134.218 113.071 133.553 115.215Z" fill="#5A441E"/>
<path d="M176.111 102.144C176.976 102.088 177.752 102.112 178.693 102.141C177.778 103.951 176.696 105.756 175.587 107.686C174.812 107.685 174.066 107.56 173.177 107.413C174.029 105.669 175.025 103.946 176.111 102.144Z" fill="#4C391B"/>
<path d="M195.435 103.699C195.975 103.688 196.485 103.804 197.107 104.065C196.85 105.412 196.481 106.613 196.046 107.894C195.919 108.167 195.857 108.361 195.789 108.634C195.783 108.713 195.755 108.869 195.755 108.869C195.133 108.752 194.511 108.635 193.752 108.504C194.212 106.935 194.808 105.381 195.435 103.699Z" fill="#513D1B"/>
<path d="M135.536 108.517C134.919 108.397 134.301 108.277 133.547 108.143C133.875 106.794 134.339 105.461 134.873 104.019C135.451 103.985 135.959 104.06 136.562 104.35C136.283 105.883 135.91 107.2 135.536 108.517Z" fill="#513D1B"/>
<path d="M157.128 100.125C157.344 100.293 157.595 100.571 157.863 100.966C157.641 100.8 157.402 100.518 157.128 100.125Z" fill="#4C391B"/>
<path d="M112.497 115.391C112.551 115.557 112.638 115.85 112.658 116.224C112.571 116.043 112.55 115.781 112.497 115.391Z" fill="#5A441E"/>
<path d="M95.2229 123.865C95.3319 123.938 95.441 124.126 95.5621 124.425C95.4569 124.351 95.3401 124.165 95.2229 123.865Z" fill="#473519"/>
<path d="M189.659 119.07C189.683 119.128 189.621 119.25 189.482 119.44C189.461 119.383 189.517 119.258 189.659 119.07Z" fill="#5A441E"/>
<path d="M143.384 119.238C143.454 119.23 143.543 119.325 143.677 119.507C143.615 119.51 143.509 119.425 143.384 119.238Z" fill="#513D1B"/>
<path d="M161.09 106.47C161.176 106.434 161.263 106.512 161.383 106.681C161.322 106.693 161.215 106.629 161.09 106.47Z" fill="#5A441E"/>
<path d="M161.459 106.837C161.515 106.835 161.601 106.925 161.736 107.096C161.685 107.095 161.588 107.012 161.459 106.837Z" fill="#5A441E"/>
<path d="M195.677 102.784C195.7 102.845 195.636 102.959 195.496 103.135C195.476 103.078 195.532 102.957 195.677 102.784Z" fill="#513D1B"/>
<path d="M177.262 99.5834C177.284 99.6437 177.217 99.7639 177.072 99.9529C177.054 99.8954 177.113 99.7692 177.262 99.5834Z" fill="#4C391B"/>
<path d="M51.7336 118.067C52.2905 116.27 52.8474 114.474 53.5608 112.557C54.3482 112.81 54.9791 113.182 55.598 113.682C55.548 114.238 55.5105 114.667 55.4606 115.232C57.9597 115.232 60.2939 115.277 62.6228 115.187C62.9988 115.173 63.3517 114.561 63.7373 114.086C64.6227 112.342 66.1192 113.453 67.2798 113.124C67.8607 114.688 68.4421 116.253 68.8913 117.977C68.2406 118.172 67.699 118.319 67.2075 118.219C66.0424 117.981 65.5365 118.454 65.4745 119.568C65.0203 117.82 64.1922 117.007 62.1144 117.317C60.1912 117.605 58.1601 117.087 56.1814 117.134C55.5208 117.15 54.8757 117.818 54.1036 118.237C53.2337 118.212 52.4835 118.139 51.7336 118.067Z" fill="#4C391B"/>
<path d="M67.2469 112.998C66.1193 113.453 64.6228 112.342 63.6353 114.005C62.2904 110.677 61.0689 107.291 59.9672 103.851C60.5393 103.759 61.0296 103.591 61.4378 103.708C62.6554 104.057 63.0459 103.517 63.0388 102.415C64.4309 105.901 65.8226 109.386 67.2469 112.998Z" fill="#5A441E"/>
<path d="M71.1264 123.392C72.8053 125.893 74.0122 128.837 77.2945 130.184C76.8523 130.291 76.4122 130.482 75.9679 130.492C73.9885 130.537 72.0048 130.59 70.0293 130.498C69.5871 130.477 68.9456 129.964 68.7887 129.534C68.3975 128.462 68.2325 127.306 67.955 125.948C67.8286 125.533 67.7238 125.354 67.619 125.176C67.619 125.176 67.597 125.065 67.6183 124.866C68.2424 122.705 69.9053 123.655 71.1264 123.392Z" fill="#302416"/>
<path d="M52.0124 124.798C52.0074 124.856 52.0152 124.919 51.9961 124.973C51.3099 126.927 50.5654 128.895 53.8013 129.797C53.6409 129.937 53.4805 130.078 53.3202 130.218C50.1172 130.218 46.9142 130.218 43.6171 130.218C43.7456 129.866 43.7718 129.674 43.8245 129.667C47.5334 129.134 48.5945 126.116 50.0297 123.155C51.2625 122.986 52.0269 123.271 52.0601 124.488C52.0601 124.488 52.046 124.472 52.0212 124.504C51.9373 124.625 51.9426 124.712 52.0124 124.798Z" fill="#302416"/>
<path d="M63.0325 102.284C63.046 103.517 62.6554 104.057 61.4379 103.708C61.0297 103.591 60.5394 103.758 59.935 103.744C59.0053 103.298 58.9373 103.36 58.6959 104.513C58.0512 104.115 57.4858 103.813 56.92 103.511C57.6749 101.362 58.4127 99.206 59.2015 97.0695C59.3279 96.7266 59.7286 96.1957 59.9219 96.2284C60.3004 96.2929 60.7879 96.6202 60.9398 96.9663C61.6875 98.6723 62.34 100.42 63.0325 102.284Z" fill="#4C391B"/>
<path d="M71.1318 123.262C69.9054 123.655 68.2425 122.705 67.6158 124.81C66.8865 123.245 66.1809 121.537 65.475 119.698C65.5366 118.454 66.0425 117.981 67.2076 118.219C67.699 118.319 68.2407 118.172 68.8868 118.109C69.7217 119.765 70.4294 121.449 71.1318 123.262Z" fill="#40301A"/>
<path d="M56.8287 103.6C57.4858 103.813 58.0512 104.115 58.6647 104.641C57.6787 107.761 56.6446 110.657 55.6105 113.554C54.9792 113.182 54.3483 112.81 53.5829 112.425C54.5452 109.505 55.6413 106.597 56.8287 103.6Z" fill="#5A441E"/>
<path d="M52.1536 124.396C52.0269 123.271 51.2625 122.986 50.0885 123.043C50.4978 121.456 51.0458 119.873 51.6636 118.179C52.4836 118.139 53.2338 118.212 54.0781 118.363C53.5308 120.395 52.8889 122.349 52.1536 124.396Z" fill="#40301A"/>
<path d="M67.631 125.282C67.7237 125.354 67.8285 125.533 67.9514 125.816C67.8604 125.743 67.7517 125.566 67.631 125.282Z" fill="#40301A"/>
<path d="M52.0295 124.716C51.9425 124.712 51.9371 124.625 52.032 124.504C52.0682 124.47 52.0466 124.635 52.0295 124.716Z" fill="#40301A"/>
<path d="M162.136 100.966C162.079 100.972 161.99 100.888 161.851 100.724C161.902 100.722 162.003 100.799 162.136 100.966Z" fill="#4C391B"/>
<path d="M11.6679 121.272C12.8267 122.215 13.9511 123.205 15.1558 124.085C16.0419 124.732 16.9847 125.349 17.9891 125.774C19.4057 126.373 20.8887 126.829 22.3696 127.255C23.487 127.576 24.6354 127.834 25.7877 127.98C29.5815 128.463 33.3028 128.345 36.5331 125.943C37.3849 125.31 38.0094 124.371 38.9342 123.444C39.5459 123.484 39.9612 123.651 40.3769 123.819C40.248 124.868 40.0919 125.915 39.9963 126.967C39.8281 128.817 38.7242 129.986 36.8853 130.161C33.3388 130.499 29.7746 131.207 26.2469 131.06C20.3877 130.816 14.6897 129.693 9.76052 126.018C8.49254 125.073 7.14592 124.377 6.47668 122.601C6.56463 120.829 7.73769 121.363 8.63461 121.334C9.64532 121.302 10.6568 121.292 11.6679 121.272Z" fill="#302416"/>
<path d="M37.5492 91.1536C35.0337 88.8905 32.0312 87.8004 28.7283 87.2802C24.4413 86.6047 20.3202 87.7093 16.1973 88.4408C14.6406 88.7167 13.278 90.0901 11.5965 91.049C10.266 91.0437 8.94834 91.4734 8.46094 89.9164C9.14522 89.471 9.90605 89.1096 10.5008 88.566C13.2811 86.0245 16.7669 85.5121 20.2765 85.0997C22.6933 84.8156 25.1287 84.4515 27.5487 84.4972C30.4571 84.5518 33.3597 84.9887 36.2608 85.2969C36.8376 85.3582 37.3906 85.6135 37.9645 85.7316C41.2439 86.4075 41.6833 87.1812 40.6474 90.5018C40.5773 90.7266 40.5086 90.9518 40.3015 91.3703C39.2924 91.427 38.4208 91.2905 37.5492 91.1536Z" fill="#302416"/>
<path d="M1.00732 108.521C0.00998358 108.006 -0.119854 107.461 0.309473 106.279C1.06805 104.192 1.37637 101.94 1.99724 99.8153C2.0119 101.308 2.70515 101.873 4.09648 101.784C4.96054 101.729 5.83123 101.777 6.69894 101.779C6.59219 102.695 6.37963 103.615 6.40027 104.528C6.44654 106.577 6.60876 108.623 6.573 110.769C5.73595 110.79 5.03446 110.582 4.36636 110.661C2.62072 110.865 1.3074 110.53 1.00732 108.521Z" fill="#5A441E"/>
<path d="M11.6283 121.157C10.6568 121.292 9.64536 121.302 8.63466 121.334C7.73774 121.363 6.56467 120.829 6.37339 122.531C5.19218 120.886 4.02077 119.102 2.85095 117.052C3.39674 116.392 3.90391 115.747 4.49288 115.66C5.69349 115.484 6.93822 115.609 8.16474 115.61C9.30605 117.42 10.4474 119.231 11.6283 121.157Z" fill="#3E2E19"/>
<path d="M8.13162 115.483C6.93816 115.609 5.69344 115.484 4.49283 115.66C3.90385 115.747 3.3967 116.392 2.83651 116.927C0.99563 115.315 1.85627 112.811 1.08664 110.752C0.875545 110.188 1.04125 109.482 1.02064 108.681C1.3073 110.53 2.62062 110.865 4.36626 110.661C5.03436 110.582 5.73589 110.79 6.55541 110.922C7.15862 112.437 7.62861 113.897 8.13162 115.483Z" fill="#4C391B"/>
<path d="M8.33513 89.9635C8.94836 91.4734 10.266 91.0436 11.5153 91.1383C10.8107 92.5085 9.9695 93.883 9.09861 95.238C8.53803 96.11 7.93383 96.9543 7.12906 97.7897C5.89801 97.4355 4.88705 97.1029 3.8761 96.7702C5.09501 94.372 6.01186 91.7795 8.33513 89.9635Z" fill="#40301A"/>
<path d="M3.77228 96.8334C4.88711 97.1029 5.89807 97.4355 7.02557 97.8511C7.08721 98.9075 7.03226 99.8812 6.94612 101.033C6.84324 101.302 6.7839 101.399 6.73689 101.504C6.73689 101.504 6.72973 101.643 6.71433 101.711C5.83119 101.777 4.96054 101.729 4.09648 101.784C2.70515 101.873 2.01189 101.308 2.10997 99.722C2.62189 98.6788 3.14516 97.7876 3.77228 96.8334Z" fill="#4C391B"/>
<path d="M37.5378 91.2915C38.4208 91.2904 39.2924 91.427 40.2884 91.5036C41.194 93.4373 40.806 96.7202 39.5658 97.3085C38.8828 95.339 38.2048 93.3841 37.5378 91.2915Z" fill="#40301A"/>
<path d="M40.4898 123.741C39.9613 123.651 39.546 123.484 39.0192 123.36C39.2833 122.311 39.6239 121.205 40.0622 120.139C40.1574 119.907 40.6584 119.644 40.8729 119.712C41.1161 119.789 41.4379 120.257 41.394 120.493C41.1944 121.562 40.8775 122.609 40.4898 123.741Z" fill="#40301A"/>
<path d="M6.80644 101.45C6.78385 101.399 6.84339 101.302 6.97584 101.151C7.02807 101.216 6.97467 101.318 6.80644 101.45Z" fill="#5A441E"/>
<path d="M157.91 101.164C157.984 101.134 158.071 101.208 158.196 101.367C158.142 101.376 158.039 101.315 157.91 101.164Z" fill="#4C391B"/>
<path d="M162.467 101.323C162.397 101.345 162.317 101.27 162.203 101.113C162.282 101.066 162.377 101.13 162.467 101.323Z" fill="#4C391B"/>
<path d="M158.277 101.513C158.328 101.514 158.416 101.602 158.552 101.772C158.505 101.769 158.409 101.685 158.277 101.513Z" fill="#4C391B"/>
<path d="M176.557 101.363C176.58 101.424 176.513 101.54 176.369 101.722C176.35 101.664 176.408 101.541 176.557 101.363Z" fill="#4C391B"/>
<path d="M141.225 102.387C141.154 102.406 141.072 102.323 140.959 102.15C141.009 102.149 141.105 102.223 141.225 102.387Z" fill="#513D1B"/>
<path d="M98.7522 122.604C98.6765 122.632 98.5916 122.555 98.4744 122.39C98.528 122.383 98.6286 122.449 98.7522 122.604Z" fill="#473519"/>
<path d="M196.051 102.116C196.08 102.179 196.013 102.276 195.862 102.417C195.852 102.368 195.911 102.264 196.051 102.116Z" fill="#513D1B"/>
<path d="M112.931 121.003C113.002 120.995 113.095 121.091 113.231 121.278C113.167 121.282 113.059 121.194 112.931 121.003Z" fill="#4C391B"/>
<path d="M197.502 103.574C197.522 103.64 197.463 103.757 197.305 103.898C197.279 103.823 197.352 103.724 197.502 103.574Z" fill="#513D1B"/>
<path d="M137.344 103.255C137.341 103.298 137.261 103.397 137.101 103.549C137.102 103.505 137.184 103.408 137.344 103.255Z" fill="#513D1B"/>
<path d="M139.448 107.798C139.346 107.716 139.234 107.523 139.134 107.213C139.242 107.293 139.341 107.489 139.448 107.798Z" fill="#5A441E"/>
<path d="M196.047 107.894C196.06 108.016 196.009 108.216 195.875 108.486C195.857 108.361 195.919 108.167 196.047 107.894Z" fill="#5A441E"/>
<path d="M222.24 140.78V138.242H223.317C223.588 138.242 223.785 138.265 223.907 138.311C224.031 138.356 224.129 138.437 224.203 138.554C224.277 138.67 224.313 138.803 224.313 138.954C224.313 139.144 224.257 139.301 224.146 139.426C224.034 139.55 223.867 139.628 223.644 139.66C223.755 139.724 223.846 139.795 223.918 139.873C223.99 139.95 224.087 140.088 224.21 140.285L224.519 140.78H223.907L223.537 140.228C223.406 140.03 223.316 139.906 223.268 139.856C223.219 139.804 223.168 139.768 223.114 139.75C223.059 139.73 222.974 139.721 222.856 139.721H222.752V140.78H222.24ZM222.752 139.315H223.131C223.376 139.315 223.53 139.305 223.591 139.284C223.652 139.263 223.7 139.228 223.734 139.177C223.769 139.126 223.786 139.062 223.786 138.986C223.786 138.901 223.763 138.832 223.717 138.78C223.672 138.727 223.608 138.694 223.525 138.68C223.484 138.674 223.359 138.671 223.152 138.671H222.752V139.315Z" fill="#1E1915"/>
</g>
<defs>
<clipPath id="clip0_81_1086">
<rect width="285" height="150" fill="white"/>
</clipPath>
</defs>
</svg>
