<svg width="508" height="595" viewBox="0 0 508 595" fill="none" xmlns="http://www.w3.org/2000/svg">
<g opacity="0.1" clip-path="url(#clip0_50_14347)">
<path d="M376.379 325.732C376.949 323.232 376.561 320.98 374.102 322.141C367.293 325.348 360.532 328.752 354.101 332.65C348.998 335.742 356.425 340.737 352.642 344.39C350.344 344.262 349.466 341.969 348.973 340.137C347.863 336.008 346.095 335.957 342.729 337.85C339.125 339.876 337.715 342.206 340.48 345.597C342.745 348.375 345.483 350.77 348.051 353.293C351.922 357.097 349.383 359.915 346.368 362.139C342.473 365.013 341.509 360.522 339.567 358.786C339.052 358.327 339.375 357.035 339.059 356.224C334.853 345.405 330.729 343.957 321.693 350.58C312.558 357.278 304.684 364.625 302.745 377.064C301.715 383.676 293.025 386.033 290.551 392.811C289.177 396.571 286.566 400.06 283.874 403.105C280.319 407.117 280.767 410.298 284.234 413.949C287.491 417.379 290.78 419.354 294.92 415.636C296.983 413.787 298.789 414.03 301.392 414.572C307.319 415.811 306.692 409.662 308.039 406.735C308.901 404.865 306.214 401.816 302.673 404.142C301.068 405.197 299.784 404.686 299.643 402.65C299.441 399.793 301.135 397.581 302.669 395.473C304.121 393.478 306.368 393.437 308.264 394.776C310.377 396.266 312.224 398.133 314.272 399.907C318.473 394.489 311.651 392.488 311.681 388.32C311.701 385.989 311.239 383.348 312.844 382.159C315.973 379.835 315.283 384.269 316.801 385.091C325.754 389.937 323.371 398.944 324.443 406.598C324.757 408.844 322.297 410.868 320.702 411.196C312.92 412.784 307.18 419.133 299.156 420.083C296.783 420.364 294.819 421.555 297.16 424.629C298.996 427.04 298.636 430.321 296.203 431.578C292.605 433.438 291.936 429.282 290.862 427.266C289.861 425.391 290.494 421.309 287.755 422.093C284.943 422.896 282.629 426.047 280.522 428.536C279.063 430.258 279.349 432.443 281.136 434.191C283.067 436.08 285.657 437.731 286.628 440.047C287.658 442.502 295.176 446.093 286.287 448.462C285.143 448.767 285.22 450.246 285.777 451.5C288.214 456.98 286.315 462.713 287.073 470.228C281.976 463.345 277.268 459.327 272.791 468.862C269.34 464.898 270.886 461.075 269.417 457.744C267.683 453.82 266.2 447.989 274.255 447.101C277.427 446.751 281.753 443.595 279.083 440.666C277.08 438.47 273.107 435.355 268.49 436.19C263.625 437.07 261.98 439.145 261.261 444.552C260.099 453.315 257.482 461.924 258.215 470.874C258.526 474.685 257.428 478.315 255.865 481.119C246.342 498.213 244.961 515.397 252.553 533.65C258.603 548.198 255.742 564.104 257.88 579.305C258.871 586.364 259.818 592.743 265.638 597.391C269.908 600.8 273.273 605.03 274.058 610.426C274.744 615.169 277.412 618.895 280.087 622.005C287.24 630.324 290.454 640.338 294.188 650.213C294.502 651.036 294.916 651.825 295.365 652.583C298.495 657.859 300.74 665.213 307.082 666.088C313.614 666.986 314.604 658.989 317.865 654.746C325.179 645.227 330.479 635.16 330.306 622.47C330.191 614.027 324.044 608.73 321.71 601.515C320.137 596.647 319.474 590.095 311.959 589.557C311.051 589.492 309.469 587.927 309.514 587.13C310.243 573.75 297.057 564.277 299.441 550.403C300.594 543.715 297.942 536.72 300.998 530.069C302.778 526.195 299.037 523.597 297.277 521.607C291.346 514.902 291.458 508.687 296.034 501.492C299.83 495.527 303.71 489.325 299.622 481.724C299.148 480.838 299.26 479.004 299.874 478.249C308.187 468.092 308.391 455.466 310.911 443.469C312.02 438.185 313.83 432.621 319.865 430.246C320.893 429.841 321.842 428.762 322.419 427.758C330.657 413.441 344.857 403.737 352.314 388.855C353.899 385.695 356.098 383.769 359.53 383.152C363.483 382.441 366.436 380.126 369.239 377.36C371.742 374.891 373.721 370.407 378.603 373.859C378.943 374.098 380.501 373.386 380.796 372.776C383.814 366.533 391.013 366.733 395.387 363.173C402.653 357.261 410.161 354.874 419.138 356.067C422.212 356.474 425.182 355.889 427.589 354.094C431.753 350.983 436.313 350.529 440.528 352.836C443.732 354.587 445.966 354.013 448.731 352.511C453.123 350.124 457.738 348.142 462.089 345.686C469.146 341.703 474.842 342.955 479.668 349.431C483.595 354.7 489.447 355.818 494.866 353.61C510.914 347.069 522.175 356.543 533.726 364.651C537.577 367.354 540.202 371.692 545.876 370.582C547.579 370.249 549.501 370.433 549.664 373.086C550.362 384.385 560.416 385.741 567.724 387.996C577.841 391.12 581.533 399.574 585.308 406.914C590.313 416.645 593.875 426.882 602.894 433.934C604.86 435.472 606.824 437.195 607.332 440.333C609.488 453.663 615.901 458.997 629.124 458.961C639.219 458.935 649.31 459.305 659.337 457.279C662.472 456.648 663.638 455.799 662.668 452.748C660.385 445.556 658.735 438.27 651.857 433.302C649.235 431.407 646.88 427.992 646.566 423.554C646.268 419.339 644.571 414.982 640.667 412.113C639.292 411.105 638.24 409.761 637.816 407.769C633.113 385.738 619.38 370.173 601.445 357.914C596.504 354.538 592.171 351.124 588.637 346.06C583.822 339.162 576.206 335.606 568.42 332.505C560.87 329.499 553.261 326.554 549.47 318.043C546.475 311.321 539.272 313.797 535.142 315.016C528.986 316.831 524.57 315.23 520.986 311.565C517.122 307.61 512.956 306.987 508.074 307.307C499.933 307.837 492.342 306.063 485.544 301.466C480.228 297.87 474.705 297.786 468.583 299.107C463.053 300.3 457.621 303.072 451.469 300.351C449.205 299.351 445.647 299.129 443.008 301.507C437.956 306.067 433.327 308.552 425.815 304.448C421.559 302.123 415.418 307.008 410.604 309.42C405.831 311.805 401.522 313.371 396.642 310.8C391.56 308.122 389.522 309.82 389.481 315.205C389.428 321.932 387.214 326.625 378.725 326.139C375.826 329.08 375.491 329.246 376.328 330.936C377.663 333.631 378.11 335.882 375.286 337.799C374.822 338.911 373.486 337.514 374.487 338.178C374.574 338.234 374.588 337.927 374.876 337.699C379.225 334.256 373.922 329.878 376.379 325.732Z" fill="#67522C"/>
<path d="M493.343 290.481C495.879 288.901 498.438 288.517 499.927 289.688C508.23 296.214 510.205 289.161 511.818 283.788C516.29 268.912 522.37 254.644 527.421 239.999C528.765 236.096 528.909 231.728 527.023 227.73C526.201 225.992 525.723 223.49 522.768 224.423C519.789 225.357 520.355 228.458 521.163 229.581C523.234 232.462 526.58 234.306 519.982 235.873C517.113 236.556 522.641 239.757 519.985 241.867C511.461 237.472 510.77 234.873 515.301 226.699C526.721 206.104 523.608 191.599 508.686 173.517C500.582 163.695 491.064 154.993 480.209 148.01C476.317 145.505 474.57 141.149 472.109 137.507C466.169 128.717 459.968 120.425 450.567 114.846C442.406 110.004 444.041 100.578 441.748 93.031C441.331 91.6544 442.234 89.7387 441.601 88.5834C435.512 77.4806 440.087 64.8955 436.612 53.454C436.291 52.401 436.163 50.6622 436.762 50.0505C444.864 41.8036 439.953 29.1911 446.756 20.3621C448.182 18.5118 446.965 14.6108 446.965 11.2822C445.457 11.6524 443.948 11.8093 443.932 12.0573C443.318 22.2079 434.674 29.5989 434.464 39.868C434.425 41.6382 434.645 43.7617 433.792 45.1152C418.556 69.2559 425.709 94.7471 428.991 120.046C429.445 123.556 432.02 125.08 434.026 127.134C438.386 131.594 441.595 136.471 444.418 142.244C448.017 149.605 454.635 155.452 459.774 162.093C467.647 172.269 479.963 178.543 483.619 192.586C486.814 204.844 490.133 216.402 482.155 227.927C481.535 228.823 481.137 230.253 481.347 231.288C484.752 248.116 474.175 258.668 464.45 269.645C462.897 271.399 461.509 273.338 460.27 275.333C457.425 279.919 458.479 284.196 464.005 283.543C474.787 282.269 482.852 289.846 493.343 290.481Z" fill="#67522C"/>
<path d="M354.663 167.308C347.4 163.129 343.071 158.095 344.474 149.646C345.295 144.706 343.851 140.183 340.971 136.225C332.101 124.026 329.996 108.705 323.48 96.0569C316.701 82.8999 317.207 66.7408 305.748 55.6384C302.657 52.6432 302.665 46.3949 301.342 41.6139C300.874 39.9267 301.247 37.6992 300.275 36.5068C292.287 26.7058 292.207 13.7956 286.972 2.92817C286.213 1.35418 285.654 0.465263 283.958 0.50091C281.945 0.543218 281.502 1.96777 281.589 3.52918C281.899 9.11559 282.363 14.7287 282.821 20.2591C283.991 34.474 297.432 44.9254 294.129 60.1341C302.346 70.0634 296.033 85.6512 307.516 94.5098C309.544 96.0716 310.068 99.5151 310.445 102.632C311.892 114.547 312.131 127.044 316.182 138.083C320.076 148.689 321.65 160.226 328.095 170.057C332.235 176.368 330.389 184.634 333.25 191.953C336.466 200.179 340.389 208.891 339.165 218.393C350.36 225.405 341.868 240.384 351.13 248.208C351.504 248.523 351.665 249.35 351.601 249.902C349.348 269.336 363.454 284.868 364.294 303.544C364.561 309.533 369.151 308.155 371.077 306.376C374.986 302.759 378.495 303.159 383.459 303.044C391.068 302.871 398.5 298.689 403.86 292.155C405.515 290.135 404.245 289.372 403.489 287.781C398.912 278.135 393.951 269.149 392.047 257.817C390.5 248.607 384.74 236.286 370.985 235.08C365.301 234.583 369.242 228.925 366.49 226.523C365.58 225.728 364.719 221.786 368.206 220.75C373.913 219.048 372.563 217.059 368.594 214.693C367.636 214.124 366.217 212.422 366.401 212.133C371.407 204.287 361.873 198.338 365.443 188.839C359.24 192.93 350.984 188.99 351.514 198.892C351.591 200.344 350.218 200.685 348.967 200.719C347.081 200.766 346.504 199.644 346.311 197.937C345.238 188.411 352.839 189.033 358.856 187.358C357.716 182.13 353.087 182.314 349.571 180.613C347.88 179.794 344.051 179.81 344.873 176.507C345.448 174.204 346.454 171.324 350.254 171.826C352.868 172.17 354.843 170.871 354.663 167.308Z" fill="#67522C"/>
<path d="M225.837 273.027C210.811 274.954 196.774 277.776 183.024 281.987C179.967 282.923 177.242 281.139 174.459 280.235C157.009 274.56 141.201 266.894 133.27 248.513C130.66 242.47 127.429 236.291 119.405 232.537C126.417 252.031 128.016 272.573 147.593 283.895C154.514 287.904 162.149 291.61 166.447 299.234C167.93 301.868 170.827 302.545 173.551 301.827C186.496 298.407 199.924 302.153 212.638 299.68C222.801 297.702 232.668 298.925 242.635 298.237C246.403 297.978 250.021 298.68 252.596 301.105C259.363 307.47 265.905 314.108 272.201 320.945C281.072 330.581 282.773 342.325 281.618 354.913C281.306 358.291 280.021 363.015 284.164 364.583C288.482 366.213 291.997 362.939 294.819 359.794C296.37 358.065 298.294 356.087 298.656 353.98C299.669 348.07 303.51 346.015 308.576 344.123C316.431 341.19 319.099 334.841 316.497 326.974C314.284 320.278 311.808 313.685 306.918 308.321C305.759 307.048 304.631 305.471 304.201 303.846C300.035 288.114 288.447 280.741 273.963 276.666C269.856 275.511 266.394 273.137 263.699 270.232C258.276 264.389 252.565 264.962 245.9 267.411C239.639 269.714 233.864 273.984 225.837 273.027Z" fill="#67522C"/>
<path d="M114.807 379.029C123.992 379.019 129.982 385.015 135.329 389.736C143.536 396.969 153.204 399.65 162.873 402.664C166.103 403.671 169.046 404.298 171.219 406.955C177.197 414.304 185.496 416.933 194.268 419.433C208.845 423.588 219.64 435.049 233.387 441.085C242.207 444.954 245.167 443.964 247.318 434.639C249.127 426.805 251.638 419.295 257.565 413.578C261.281 409.995 259.929 407.972 255.951 406.544C250.749 404.683 245.33 403.373 240.255 401.23C227.791 395.967 214.443 392.928 202.857 385.359C198.866 382.754 193.831 381.081 188.669 380.899C177.956 380.523 168.471 375.604 158.803 371.902C152.894 369.639 150.112 372.152 146.248 375.486C149.628 379.59 155.309 378.158 158.561 381.616C160.079 383.229 161.827 384.99 160.654 387.056C158.803 390.35 157.193 387.298 155.895 386.172C154.32 384.802 152.585 385.078 150.837 384.945C142.766 384.325 136.57 377.761 135.594 369.26C135.373 367.339 134.351 364.371 133.005 363.902C123.544 360.61 116.003 354.022 105.472 351.691C91.6777 348.64 76.5598 347.289 64.5814 337.941C58.1767 332.934 50.3939 331.293 42.8412 329.119C41.5078 328.732 39.4964 328.549 38.9329 330.165C38.52 331.355 38.7613 333.586 39.5885 334.272C46.9223 340.31 51.0954 350.855 62.8449 350.773C65.0752 350.758 68.2607 351.258 69.3976 352.75C78.1233 364.137 94.1604 363.332 103.335 373.483C106.496 376.973 110.336 377.462 114.807 379.029Z" fill="#67522C"/>
<path d="M121.342 561.225C126.457 562.578 126.998 557.956 128.273 555.082C131.597 547.578 136.884 542.489 144.402 539.575C149.059 537.772 153.726 536.258 157.393 532.364C159.003 530.652 162.612 529.048 164.522 529.706C175.04 533.34 184.789 529.743 194.779 527.622C202.424 525.998 208.816 530.051 214.495 533.954C219.727 537.538 225.739 541.88 230.958 541.331C239.578 540.429 234.812 530.906 235.645 526.004C237.324 516.098 239.001 505.17 233.893 495.277C233.138 493.82 233.111 491.051 229.739 491.931C219.818 494.522 209.643 494.421 200.044 491.289C188.915 487.659 179.075 490.455 169.084 494.714C156.991 499.866 144.621 504.299 133.068 510.754C129.459 512.765 127.101 515.625 127.089 518.765C127.067 523.984 125.171 526.982 120.79 529.236C118.457 530.435 117.296 532.366 120.192 534.594C121.606 535.677 122.916 536.996 123.952 538.441C126.239 541.648 124.779 544.753 123.032 547.526C120.549 551.457 118.687 546.751 116.422 546.728C115.744 546.722 115.145 545.516 114.387 545.043C111.214 543.033 107.615 542.743 105.891 546.252C104.132 549.808 107.914 551.49 110.375 552.642C114.617 554.626 120.25 554.417 121.342 561.225Z" fill="#67522C"/>
<path d="M263.434 619.402C260.616 610.601 255.044 604.002 251.181 596.5C248.561 591.413 245.752 592.689 242.86 594.769C232.474 602.238 223.238 611.085 213.938 619.849C213.732 620.048 213.673 620.453 213.457 620.593C198.453 629.744 189.981 644.632 180.175 660.841C177.507 650.926 174.944 652.913 169.139 656.956C142.719 675.368 122.233 701.107 94.1479 717.418C90.0108 719.821 84.5614 722.657 86.365 732.257C93.2747 719.42 105.794 717.343 115.325 711.458C134.443 699.66 150.905 682.663 173.759 677.098C176.381 676.458 178.313 673.376 180.876 672.025C201.212 661.334 218.905 646.395 239.391 635.883C247.857 631.536 255.417 625.41 263.434 619.402Z" fill="#67522C"/>
<path d="M121.499 561.994C119.337 561.391 117.131 560.609 114.866 560.079C110.129 558.971 107.268 550.132 99.7155 558.979C96.6444 562.577 91.2299 565.321 88.9548 570.765C85.6885 578.607 82.0788 586.18 71.5482 585.427C69.4672 585.279 68.2955 586.918 67.227 588.253C58.1555 599.691 44.2915 601.911 31.8404 606.736C28.0479 608.202 24.208 606.63 20.9193 604.442C16.4128 601.445 11.4348 601.031 6.38847 601.767C3.6756 602.163 1.28612 604.296 1.19034 607.085C1.12068 609.384 4.19182 609.867 5.85983 610.294C14.3442 612.451 22.8859 614.453 31.4971 615.951C41.0388 617.608 49.4423 614.31 57.3284 609.058C60.7079 606.813 64.8239 603.349 68.145 603.797C80.1706 605.423 88.7932 599.257 96.6444 592.255C106.152 583.782 115.728 575.054 121.315 562.455C121.315 561.8 121.442 561.932 121.499 561.994Z" fill="#67522C"/>
<path d="M272.033 422.475C268.793 425.036 268.37 427.785 269.365 431.037C273.576 430.3 274.557 426.421 275.711 423.477C276.631 421.13 274.484 420.698 272.033 422.475Z" fill="#67522C"/>
</g>
<defs>
<clipPath id="clip0_50_14347">
<rect width="760" height="677" fill="white" transform="matrix(-1 0 0 1 760 0.499878)"/>
</clipPath>
</defs>
</svg>
