<svg width="150" height="151" viewBox="0 0 150 151" fill="none" xmlns="http://www.w3.org/2000/svg">
<path id="Vector" d="M144.931 57.4197C141.482 53.4905 136.706 50.9699 131.515 50.3397C129.883 36.4773 123.217 23.6961 112.782 14.4209C102.347 5.14584 88.8692 0.0222168 74.9054 0.0222168C60.9417 0.0222168 47.4637 5.14584 37.0288 14.4209C26.5938 23.6961 19.9279 36.4773 18.2957 50.3397C13.1742 51.0152 8.47406 53.5321 5.07399 57.4197C3.11976 59.6767 1.67446 62.3277 0.836319 65.1926C-0.00182273 68.0575 -0.213169 71.0692 0.216643 74.023L6.53682 117.097C8.0122 126.303 12.7296 134.681 19.8385 140.718C26.9474 146.755 35.9801 150.054 45.3081 150.022H104.697C114.022 150.051 123.052 146.75 130.158 140.714C137.265 134.677 141.98 126.301 143.455 117.097L149.782 74.023C150.213 71.0696 150.003 68.058 149.166 65.193C148.329 62.3279 146.885 59.6768 144.931 57.4197ZM74.9148 18.7954C83.8422 18.8142 92.4834 21.945 99.3496 27.6483C106.216 33.3516 110.877 41.2703 112.53 50.0398H37.3063C38.96 41.2719 43.6204 33.3547 50.485 27.6517C57.3497 21.9487 65.9888 18.8168 74.9148 18.7954ZM124.926 114.403C124.118 119.16 121.639 123.473 117.934 126.566C114.229 129.659 109.542 131.329 104.715 131.275H45.3269C40.4956 131.336 35.8017 129.669 32.0914 126.575C28.381 123.482 25.8984 119.165 25.091 114.403L18.7708 71.286C18.7306 70.9956 18.7539 70.6999 18.8391 70.4194C18.9244 70.1389 19.0696 69.8802 19.2647 69.6613C19.5183 69.377 19.831 69.1514 20.1808 69.0003C20.5306 68.8492 20.9092 68.7762 21.2902 68.7865H52.2472L79.2908 95.8441C81.9719 98.5237 85.608 100.029 89.3993 100.029C93.1907 100.029 96.8268 98.5237 99.5079 95.8441L126.527 68.7865H128.733C129.116 68.7777 129.496 68.8532 129.846 69.0076C130.196 69.1621 130.507 69.3916 130.759 69.68C130.957 69.8959 131.104 70.1533 131.189 70.4333C131.275 70.7134 131.296 71.009 131.253 71.2985L124.926 114.403Z" fill="#D0D5DD"/>
</svg>
